G04 EAGLE Gerber RS-274X export*
G75*
%MOMM*%
%FSLAX34Y34*%
%LPD*%
%INBottom Copper*%
%IPPOS*%
%AMOC8*
5,1,8,0,0,1.08239X$1,22.5*%
G01*
G04 Define Apertures*
%ADD10C,1.308000*%
%ADD11P,1.42962X8X202.5*%
%ADD12C,2.600000*%
%ADD13C,1.320800*%
%ADD14P,1.64956X8X22.5*%
%ADD15P,1.64956X8X202.5*%
%ADD16P,1.42962X8X22.5*%
%ADD17C,1.800000*%
%ADD18C,4.500000*%
%ADD19C,0.812800*%
%ADD20C,0.406400*%
%ADD21C,0.508000*%
%ADD22C,0.081278*%
G36*
X534298Y109627D02*
X532502Y101701D01*
X494402Y110337D01*
X496198Y118263D01*
X534298Y109627D01*
G37*
D10*
X91600Y469900D03*
X111600Y469900D03*
X91600Y53213D03*
X111600Y53213D03*
D11*
X596900Y381000D03*
X546100Y381000D03*
D12*
X447060Y467560D03*
X666060Y467560D03*
D13*
X547372Y317500D02*
X534164Y317500D01*
X534164Y292100D02*
X547372Y292100D01*
X547372Y165100D02*
X534164Y165100D01*
X610364Y165100D02*
X623572Y165100D01*
X547372Y266700D02*
X534164Y266700D01*
X534164Y241300D02*
X547372Y241300D01*
X547372Y190500D02*
X534164Y190500D01*
X534164Y215900D02*
X547372Y215900D01*
X610364Y190500D02*
X623572Y190500D01*
X623572Y215900D02*
X610364Y215900D01*
X610364Y241300D02*
X623572Y241300D01*
X623572Y266700D02*
X610364Y266700D01*
X610364Y292100D02*
X623572Y292100D01*
X623572Y317500D02*
X610364Y317500D01*
D14*
X88900Y127000D03*
X114300Y127000D03*
X139700Y127000D03*
X165100Y127000D03*
X190500Y127000D03*
X215900Y127000D03*
X241300Y127000D03*
X266700Y127000D03*
X292100Y127000D03*
X317500Y127000D03*
X342900Y127000D03*
X368300Y127000D03*
X393700Y127000D03*
X419100Y127000D03*
X444500Y127000D03*
D15*
X444500Y381000D03*
X419100Y381000D03*
X393700Y381000D03*
X368300Y381000D03*
X342900Y381000D03*
X317500Y381000D03*
X292100Y381000D03*
X266700Y381000D03*
X241300Y381000D03*
X215900Y381000D03*
X190500Y381000D03*
X165100Y381000D03*
X139700Y381000D03*
X114300Y381000D03*
X88900Y381000D03*
D16*
X533400Y63500D03*
X635000Y63500D03*
X533400Y105664D03*
X635000Y105664D03*
D17*
X322580Y506691D03*
X322580Y455891D03*
X707900Y330200D03*
X707900Y279400D03*
X707900Y228600D03*
X707900Y177800D03*
D18*
X447060Y467560D02*
X447060Y520700D01*
X317500Y520700D01*
X666060Y467560D02*
X713340Y467560D01*
X713340Y330200D01*
D19*
X596900Y381000D02*
X596900Y467560D01*
D20*
X666060Y467560D01*
D19*
X88900Y381000D02*
X88900Y342900D01*
X495300Y342900D01*
X495300Y469900D01*
X666060Y469900D01*
X666060Y467560D01*
X91600Y469900D02*
X88900Y381000D01*
X610364Y317500D02*
X616968Y317500D01*
X596900Y381000D01*
X584200Y317500D02*
X540768Y317500D01*
X584200Y317500D02*
X584200Y292100D01*
X584200Y266700D01*
X584200Y241300D01*
X584200Y215900D01*
X584200Y190500D01*
X584200Y165100D01*
X546100Y165100D01*
X584200Y292100D02*
X616968Y292100D01*
X616968Y266700D02*
X584200Y266700D01*
X584200Y215900D02*
X616968Y215900D01*
X616968Y190500D02*
X584200Y190500D01*
X584200Y241300D02*
X546100Y241300D01*
D18*
X215900Y520700D02*
X38100Y520700D01*
X38100Y304800D01*
X38100Y12700D01*
X713340Y12700D01*
D19*
X203200Y469900D02*
X111600Y469900D01*
X38100Y317500D02*
X540768Y317500D01*
D20*
X38100Y317500D02*
X38100Y304800D01*
D18*
X713340Y181860D02*
X713340Y12700D01*
D19*
X114300Y381000D02*
X114300Y469900D01*
D20*
X111600Y469900D01*
D19*
X546100Y381000D02*
X540768Y317500D01*
D18*
X322580Y444500D02*
X215900Y444500D01*
X215900Y520700D01*
D20*
X91600Y53213D02*
X88900Y53213D01*
D19*
X91600Y53213D02*
X88900Y127000D01*
D20*
X111600Y53213D02*
X114300Y53213D01*
D19*
X111600Y53213D02*
X114300Y127000D01*
X393700Y266700D02*
X540768Y266700D01*
X533400Y63500D02*
X393700Y63500D01*
D21*
X393700Y266700D02*
X381000Y266700D01*
X381000Y63500D02*
X393700Y63500D01*
X381000Y63500D02*
X381000Y266700D01*
D19*
X495300Y190500D02*
X540768Y190500D01*
X495300Y190500D02*
X495300Y114300D01*
D22*
D19*
X444500Y127000D02*
X444500Y215900D01*
X540768Y215900D01*
X292100Y292100D02*
X292100Y127000D01*
X292100Y292100D02*
X540768Y292100D01*
X671576Y228600D02*
X707900Y228600D01*
X671576Y228600D02*
X671576Y63500D01*
X635000Y63500D01*
X648464Y106428D02*
X648464Y279400D01*
X648464Y106428D02*
X647700Y105664D01*
X635000Y105664D01*
X648464Y279400D02*
X707900Y279400D01*
M02*
