G04 EAGLE Gerber RS-274X export*
G75*
%MOMM*%
%FSLAX34Y34*%
%LPD*%
%INTop Copper*%
%IPPOS*%
%AMOC8*
5,1,8,0,0,1.08239X$1,22.5*%
G01*
G04 Define Apertures*
%ADD10C,0.130000*%
%ADD11C,1.308000*%
%ADD12P,1.42962X8X202.5*%
%ADD13C,2.600000*%
%ADD14C,1.320800*%
%ADD15P,1.64956X8X22.5*%
%ADD16P,1.64956X8X202.5*%
%ADD17P,1.42962X8X22.5*%
%ADD18C,1.800000*%
G36*
X-52494Y272036D02*
X-53572Y272058D01*
X-54085Y272087D01*
X-54581Y272127D01*
X-55059Y272178D01*
X-55520Y272240D01*
X-55963Y272314D01*
X-56389Y272399D01*
X-56797Y272496D01*
X-57188Y272604D01*
X-57562Y272723D01*
X-57918Y272853D01*
X-58257Y272995D01*
X-58578Y273149D01*
X-58882Y273313D01*
X-59168Y273489D01*
X-59437Y273678D01*
X-59688Y273879D01*
X-59922Y274094D01*
X-60139Y274322D01*
X-60339Y274563D01*
X-60521Y274817D01*
X-60686Y275084D01*
X-60833Y275365D01*
X-60963Y275659D01*
X-61076Y275966D01*
X-61171Y276286D01*
X-61250Y276619D01*
X-61310Y276965D01*
X-61354Y277325D01*
X-61380Y277698D01*
X-61388Y278084D01*
X-61380Y278459D01*
X-61353Y278823D01*
X-61309Y279173D01*
X-61248Y279511D01*
X-61169Y279837D01*
X-61073Y280150D01*
X-60959Y280450D01*
X-60827Y280738D01*
X-60678Y281014D01*
X-60511Y281277D01*
X-60327Y281527D01*
X-60125Y281765D01*
X-59906Y281991D01*
X-59669Y282204D01*
X-59415Y282404D01*
X-59143Y282592D01*
X-58854Y282768D01*
X-58548Y282933D01*
X-58225Y283086D01*
X-57886Y283228D01*
X-57529Y283359D01*
X-57156Y283478D01*
X-56766Y283586D01*
X-56358Y283683D01*
X-55934Y283768D01*
X-55494Y283842D01*
X-55036Y283904D01*
X-54561Y283955D01*
X-53561Y284023D01*
X-52494Y284046D01*
X-51961Y284040D01*
X-51443Y284022D01*
X-50942Y283992D01*
X-50457Y283951D01*
X-49987Y283897D01*
X-49534Y283831D01*
X-49097Y283754D01*
X-48676Y283664D01*
X-48270Y283563D01*
X-47881Y283450D01*
X-47508Y283324D01*
X-47150Y283187D01*
X-46809Y283038D01*
X-46484Y282877D01*
X-46175Y282704D01*
X-45881Y282519D01*
X-45605Y282322D01*
X-45347Y282114D01*
X-45106Y281895D01*
X-44883Y281664D01*
X-44678Y281422D01*
X-44491Y281169D01*
X-44322Y280904D01*
X-44170Y280628D01*
X-44036Y280341D01*
X-43921Y280042D01*
X-43823Y279732D01*
X-43742Y279410D01*
X-43680Y279077D01*
X-43635Y278733D01*
X-43609Y278377D01*
X-43600Y278010D01*
X-43609Y277643D01*
X-43635Y277288D01*
X-43679Y276945D01*
X-43742Y276612D01*
X-43821Y276292D01*
X-43919Y275983D01*
X-44034Y275686D01*
X-44167Y275400D01*
X-44318Y275126D01*
X-44486Y274864D01*
X-44672Y274613D01*
X-44876Y274374D01*
X-45098Y274146D01*
X-45337Y273930D01*
X-45594Y273725D01*
X-45869Y273532D01*
X-46161Y273351D01*
X-46469Y273182D01*
X-46794Y273024D01*
X-47134Y272878D01*
X-47491Y272743D01*
X-47865Y272620D01*
X-48254Y272509D01*
X-48660Y272410D01*
X-49082Y272322D01*
X-49521Y272246D01*
X-49976Y272182D01*
X-50447Y272129D01*
X-50934Y272088D01*
X-51438Y272059D01*
X-51958Y272042D01*
X-52494Y272036D01*
G37*
%LPC*%
G36*
X-52494Y274269D02*
X-51605Y274283D01*
X-50777Y274325D01*
X-50011Y274395D01*
X-49307Y274494D01*
X-48665Y274621D01*
X-48084Y274776D01*
X-47565Y274959D01*
X-47108Y275170D01*
X-46709Y275412D01*
X-46362Y275687D01*
X-46069Y275996D01*
X-45829Y276337D01*
X-45643Y276712D01*
X-45570Y276912D01*
X-45510Y277120D01*
X-45463Y277336D01*
X-45430Y277561D01*
X-45410Y277794D01*
X-45403Y278035D01*
X-45410Y278275D01*
X-45430Y278506D01*
X-45464Y278730D01*
X-45512Y278945D01*
X-45573Y279152D01*
X-45648Y279351D01*
X-45736Y279542D01*
X-45839Y279725D01*
X-46084Y280066D01*
X-46383Y280374D01*
X-46737Y280650D01*
X-47145Y280893D01*
X-47610Y281106D01*
X-48133Y281290D01*
X-48714Y281446D01*
X-49353Y281574D01*
X-50051Y281673D01*
X-50807Y281744D01*
X-51621Y281787D01*
X-52494Y281801D01*
X-53397Y281788D01*
X-54236Y281747D01*
X-55010Y281679D01*
X-55720Y281585D01*
X-56366Y281463D01*
X-56947Y281315D01*
X-57464Y281139D01*
X-57916Y280936D01*
X-58310Y280702D01*
X-58652Y280434D01*
X-58941Y280130D01*
X-59177Y279791D01*
X-59361Y279417D01*
X-59433Y279216D01*
X-59492Y279007D01*
X-59538Y278790D01*
X-59571Y278563D01*
X-59591Y278328D01*
X-59597Y278084D01*
X-59591Y277834D01*
X-59571Y277593D01*
X-59539Y277361D01*
X-59494Y277137D01*
X-59435Y276923D01*
X-59364Y276718D01*
X-59183Y276334D01*
X-58950Y275986D01*
X-58666Y275674D01*
X-58329Y275398D01*
X-57941Y275158D01*
X-57494Y274949D01*
X-56979Y274769D01*
X-56399Y274616D01*
X-55751Y274491D01*
X-55037Y274394D01*
X-54256Y274324D01*
X-53408Y274282D01*
X-52494Y274269D01*
G37*
%LPD*%
G36*
X-47759Y257662D02*
X-49476Y257662D01*
X-61131Y265575D01*
X-61131Y267894D01*
X-49501Y267894D01*
X-49501Y270323D01*
X-47759Y270323D01*
X-47759Y267894D01*
X-43845Y267894D01*
X-43845Y265808D01*
X-47759Y265808D01*
X-47759Y257662D01*
G37*
%LPC*%
G36*
X-49501Y259699D02*
X-49501Y265808D01*
X-58640Y265808D01*
X-57990Y265465D01*
X-57499Y265186D01*
X-57180Y264986D01*
X-50654Y260557D01*
X-49746Y259895D01*
X-49501Y259699D01*
G37*
%LPD*%
G36*
X-47709Y237154D02*
X-47967Y239387D01*
X-47657Y239483D01*
X-47366Y239596D01*
X-47096Y239726D01*
X-46845Y239874D01*
X-46615Y240038D01*
X-46405Y240220D01*
X-46214Y240419D01*
X-46044Y240635D01*
X-45894Y240868D01*
X-45764Y241119D01*
X-45653Y241386D01*
X-45563Y241671D01*
X-45493Y241973D01*
X-45443Y242292D01*
X-45413Y242628D01*
X-45403Y242981D01*
X-45420Y243414D01*
X-45470Y243822D01*
X-45554Y244207D01*
X-45671Y244567D01*
X-45822Y244903D01*
X-46007Y245215D01*
X-46225Y245503D01*
X-46477Y245766D01*
X-46757Y246002D01*
X-47063Y246206D01*
X-47395Y246379D01*
X-47751Y246521D01*
X-48132Y246631D01*
X-48539Y246709D01*
X-48970Y246756D01*
X-49427Y246772D01*
X-49825Y246756D01*
X-50204Y246709D01*
X-50563Y246630D01*
X-50902Y246519D01*
X-51222Y246377D01*
X-51523Y246203D01*
X-51803Y245997D01*
X-52065Y245760D01*
X-52300Y245496D01*
X-52505Y245210D01*
X-52678Y244902D01*
X-52819Y244572D01*
X-52929Y244219D01*
X-53008Y243845D01*
X-53055Y243449D01*
X-53071Y243030D01*
X-53053Y242590D01*
X-53000Y242166D01*
X-52912Y241756D01*
X-52788Y241362D01*
X-52623Y240976D01*
X-52408Y240589D01*
X-52144Y240203D01*
X-51832Y239816D01*
X-51832Y237657D01*
X-61131Y238234D01*
X-61131Y248060D01*
X-59254Y248060D01*
X-59254Y240246D01*
X-53770Y239914D01*
X-54029Y240284D01*
X-54253Y240676D01*
X-54443Y241089D01*
X-54598Y241525D01*
X-54719Y241982D01*
X-54805Y242461D01*
X-54857Y242962D01*
X-54874Y243484D01*
X-54851Y244106D01*
X-54780Y244695D01*
X-54664Y245252D01*
X-54500Y245777D01*
X-54289Y246269D01*
X-54032Y246729D01*
X-53728Y247156D01*
X-53377Y247551D01*
X-52989Y247906D01*
X-52572Y248214D01*
X-52127Y248474D01*
X-51654Y248688D01*
X-51152Y248853D01*
X-50622Y248972D01*
X-50063Y249043D01*
X-49476Y249066D01*
X-49139Y249060D01*
X-48810Y249041D01*
X-48491Y249009D01*
X-48181Y248965D01*
X-47880Y248908D01*
X-47588Y248838D01*
X-47305Y248755D01*
X-47032Y248660D01*
X-46512Y248431D01*
X-46028Y248152D01*
X-45581Y247822D01*
X-45170Y247441D01*
X-44802Y247015D01*
X-44483Y246549D01*
X-44213Y246045D01*
X-43992Y245501D01*
X-43820Y244918D01*
X-43753Y244611D01*
X-43698Y244295D01*
X-43655Y243969D01*
X-43624Y243633D01*
X-43606Y243288D01*
X-43600Y242932D01*
X-43616Y242343D01*
X-43666Y241782D01*
X-43748Y241251D01*
X-43863Y240749D01*
X-44012Y240275D01*
X-44193Y239832D01*
X-44407Y239417D01*
X-44655Y239031D01*
X-44933Y238677D01*
X-45241Y238357D01*
X-45579Y238071D01*
X-45946Y237820D01*
X-46343Y237602D01*
X-46769Y237419D01*
X-47224Y237269D01*
X-47709Y237154D01*
G37*
G36*
X-43845Y223443D02*
X-45403Y223443D01*
X-46100Y223773D01*
X-46754Y224138D01*
X-47366Y224537D01*
X-47936Y224970D01*
X-48472Y225427D01*
X-48982Y225895D01*
X-49466Y226375D01*
X-49924Y226866D01*
X-50781Y227855D01*
X-51574Y228835D01*
X-52335Y229762D01*
X-53095Y230595D01*
X-53480Y230969D01*
X-53874Y231305D01*
X-54277Y231604D01*
X-54690Y231865D01*
X-54902Y231978D01*
X-55121Y232077D01*
X-55347Y232160D01*
X-55579Y232228D01*
X-55819Y232281D01*
X-56066Y232319D01*
X-56319Y232342D01*
X-56579Y232350D01*
X-56925Y232336D01*
X-57251Y232297D01*
X-57557Y232232D01*
X-57843Y232141D01*
X-58109Y232024D01*
X-58355Y231880D01*
X-58581Y231711D01*
X-58788Y231515D01*
X-58972Y231297D01*
X-59131Y231058D01*
X-59266Y230798D01*
X-59376Y230518D01*
X-59462Y230219D01*
X-59524Y229898D01*
X-59560Y229558D01*
X-59573Y229197D01*
X-59561Y228852D01*
X-59525Y228522D01*
X-59465Y228208D01*
X-59381Y227910D01*
X-59273Y227627D01*
X-59141Y227360D01*
X-58986Y227108D01*
X-58806Y226872D01*
X-58605Y226655D01*
X-58384Y226462D01*
X-58144Y226292D01*
X-57884Y226146D01*
X-57605Y226024D01*
X-57307Y225925D01*
X-56990Y225850D01*
X-56653Y225798D01*
X-56861Y223541D01*
X-57367Y223622D01*
X-57845Y223743D01*
X-58297Y223904D01*
X-58723Y224104D01*
X-59122Y224344D01*
X-59495Y224623D01*
X-59842Y224943D01*
X-60162Y225302D01*
X-60449Y225694D01*
X-60698Y226113D01*
X-60909Y226559D01*
X-61082Y227033D01*
X-61216Y227533D01*
X-61312Y228061D01*
X-61369Y228615D01*
X-61388Y229197D01*
X-61369Y229831D01*
X-61311Y230428D01*
X-61215Y230987D01*
X-61080Y231508D01*
X-60907Y231991D01*
X-60695Y232437D01*
X-60444Y232844D01*
X-60155Y233214D01*
X-59831Y233544D01*
X-59474Y233829D01*
X-59085Y234070D01*
X-58663Y234268D01*
X-58209Y234422D01*
X-57723Y234531D01*
X-57204Y234597D01*
X-56653Y234619D01*
X-56402Y234612D01*
X-56151Y234590D01*
X-55900Y234554D01*
X-55650Y234504D01*
X-55151Y234360D01*
X-54653Y234159D01*
X-54156Y233901D01*
X-53659Y233587D01*
X-53163Y233217D01*
X-52666Y232791D01*
X-52101Y232234D01*
X-51399Y231469D01*
X-50561Y230498D01*
X-49586Y229319D01*
X-49024Y228650D01*
X-48490Y228053D01*
X-47984Y227527D01*
X-47507Y227074D01*
X-47048Y226686D01*
X-46598Y226357D01*
X-46156Y226085D01*
X-45722Y225872D01*
X-45722Y234889D01*
X-43845Y234889D01*
X-43845Y223443D01*
G37*
G36*
X-43845Y252411D02*
X-46532Y252411D01*
X-46532Y254803D01*
X-43845Y254803D01*
X-43845Y252411D01*
G37*
G36*
X136612Y-7200D02*
X136119Y-7187D01*
X135650Y-7147D01*
X135207Y-7080D01*
X134789Y-6987D01*
X134396Y-6867D01*
X134028Y-6721D01*
X133685Y-6548D01*
X133367Y-6348D01*
X133073Y-6118D01*
X132800Y-5856D01*
X132549Y-5561D01*
X132320Y-5233D01*
X132112Y-4872D01*
X131926Y-4479D01*
X131762Y-4053D01*
X131619Y-3594D01*
X133729Y-3262D01*
X133818Y-3524D01*
X133920Y-3768D01*
X134034Y-3996D01*
X134160Y-4207D01*
X134299Y-4401D01*
X134450Y-4578D01*
X134614Y-4738D01*
X134790Y-4882D01*
X134979Y-5008D01*
X135180Y-5118D01*
X135394Y-5211D01*
X135620Y-5287D01*
X135859Y-5346D01*
X136110Y-5388D01*
X136373Y-5413D01*
X136649Y-5422D01*
X136883Y-5415D01*
X137111Y-5394D01*
X137332Y-5359D01*
X137546Y-5311D01*
X137754Y-5249D01*
X137954Y-5173D01*
X138336Y-4980D01*
X138690Y-4731D01*
X139018Y-4428D01*
X139319Y-4069D01*
X139593Y-3655D01*
X139838Y-3190D01*
X140053Y-2677D01*
X140236Y-2118D01*
X140388Y-1511D01*
X140509Y-857D01*
X140598Y-156D01*
X140657Y592D01*
X140685Y1387D01*
X140552Y1118D01*
X140396Y862D01*
X140219Y620D01*
X140020Y392D01*
X139799Y177D01*
X139556Y-24D01*
X139291Y-212D01*
X139004Y-385D01*
X138703Y-542D01*
X138395Y-678D01*
X138079Y-793D01*
X137756Y-887D01*
X137426Y-960D01*
X137088Y-1012D01*
X136743Y-1044D01*
X136391Y-1054D01*
X136104Y-1048D01*
X135823Y-1029D01*
X135550Y-998D01*
X135284Y-954D01*
X134774Y-830D01*
X134293Y-655D01*
X133842Y-431D01*
X133419Y-157D01*
X133026Y167D01*
X132662Y541D01*
X132334Y956D01*
X132050Y1403D01*
X131810Y1884D01*
X131613Y2396D01*
X131460Y2942D01*
X131351Y3520D01*
X131285Y4130D01*
X131263Y4773D01*
X131269Y5108D01*
X131287Y5433D01*
X131358Y6056D01*
X131477Y6644D01*
X131644Y7195D01*
X131858Y7709D01*
X132119Y8188D01*
X132428Y8630D01*
X132785Y9036D01*
X133183Y9400D01*
X133620Y9715D01*
X134093Y9982D01*
X134603Y10200D01*
X135151Y10370D01*
X135736Y10491D01*
X136042Y10534D01*
X136358Y10564D01*
X136683Y10582D01*
X137017Y10588D01*
X137372Y10580D01*
X137716Y10555D01*
X138049Y10513D01*
X138371Y10455D01*
X138682Y10380D01*
X138983Y10288D01*
X139272Y10180D01*
X139550Y10055D01*
X139818Y9913D01*
X140074Y9754D01*
X140320Y9579D01*
X140555Y9388D01*
X140779Y9179D01*
X140991Y8954D01*
X141193Y8712D01*
X141384Y8454D01*
X141564Y8178D01*
X141732Y7886D01*
X141889Y7578D01*
X142034Y7252D01*
X142167Y6910D01*
X142289Y6551D01*
X142399Y6175D01*
X142498Y5782D01*
X142585Y5373D01*
X142660Y4947D01*
X142724Y4504D01*
X142776Y4044D01*
X142817Y3568D01*
X142846Y3074D01*
X142869Y2037D01*
X142863Y1489D01*
X142843Y956D01*
X142812Y440D01*
X142767Y-60D01*
X142710Y-545D01*
X142640Y-1013D01*
X142558Y-1465D01*
X142462Y-1901D01*
X142355Y-2320D01*
X142234Y-2724D01*
X142101Y-3112D01*
X141955Y-3483D01*
X141796Y-3839D01*
X141624Y-4178D01*
X141440Y-4501D01*
X141243Y-4808D01*
X141035Y-5098D01*
X140815Y-5369D01*
X140585Y-5621D01*
X140344Y-5855D01*
X140093Y-6070D01*
X139830Y-6266D01*
X139557Y-6443D01*
X139273Y-6602D01*
X138978Y-6742D01*
X138672Y-6864D01*
X138356Y-6967D01*
X138029Y-7051D01*
X137691Y-7116D01*
X137342Y-7163D01*
X136982Y-7191D01*
X136612Y-7200D01*
G37*
%LPC*%
G36*
X136919Y688D02*
X137156Y695D01*
X137389Y715D01*
X137618Y749D01*
X137842Y797D01*
X138278Y933D01*
X138698Y1124D01*
X139087Y1364D01*
X139432Y1650D01*
X139734Y1980D01*
X139992Y2356D01*
X140103Y2559D01*
X140199Y2769D01*
X140280Y2986D01*
X140346Y3209D01*
X140398Y3440D01*
X140435Y3677D01*
X140457Y3921D01*
X140464Y4172D01*
X140449Y4681D01*
X140405Y5164D01*
X140330Y5622D01*
X140225Y6054D01*
X140091Y6460D01*
X139926Y6842D01*
X139732Y7197D01*
X139507Y7527D01*
X139258Y7825D01*
X138988Y8083D01*
X138698Y8301D01*
X138388Y8480D01*
X138057Y8619D01*
X137706Y8718D01*
X137335Y8777D01*
X136943Y8797D01*
X136555Y8780D01*
X136188Y8729D01*
X135842Y8645D01*
X135517Y8526D01*
X135213Y8373D01*
X134931Y8186D01*
X134669Y7966D01*
X134428Y7711D01*
X134213Y7428D01*
X134026Y7121D01*
X133868Y6789D01*
X133738Y6434D01*
X133638Y6055D01*
X133566Y5652D01*
X133523Y5224D01*
X133508Y4773D01*
X133523Y4313D01*
X133566Y3878D01*
X133638Y3468D01*
X133738Y3082D01*
X133868Y2721D01*
X134026Y2384D01*
X134213Y2073D01*
X134428Y1786D01*
X134669Y1529D01*
X134929Y1306D01*
X135210Y1117D01*
X135511Y963D01*
X135833Y842D01*
X136174Y757D01*
X136536Y705D01*
X136919Y688D01*
G37*
%LPD*%
G36*
X154862Y-6955D02*
X152777Y-6955D01*
X152777Y-3042D01*
X144631Y-3042D01*
X144631Y-1324D01*
X152544Y10331D01*
X154862Y10331D01*
X154862Y-1299D01*
X157292Y-1299D01*
X157292Y-3042D01*
X154862Y-3042D01*
X154862Y-6955D01*
G37*
%LPC*%
G36*
X152777Y-1299D02*
X152777Y7840D01*
X152433Y7190D01*
X152154Y6699D01*
X151955Y6380D01*
X147526Y-146D01*
X146864Y-1054D01*
X146667Y-1299D01*
X152777Y-1299D01*
G37*
%LPD*%
G36*
X107889Y-6955D02*
X96443Y-6955D01*
X96443Y-5397D01*
X96773Y-4700D01*
X97138Y-4046D01*
X97537Y-3434D01*
X97970Y-2864D01*
X98427Y-2328D01*
X98895Y-1818D01*
X99375Y-1334D01*
X99866Y-876D01*
X100855Y-19D01*
X101835Y774D01*
X102762Y1535D01*
X103595Y2295D01*
X103969Y2680D01*
X104305Y3074D01*
X104604Y3477D01*
X104865Y3890D01*
X104978Y4102D01*
X105077Y4321D01*
X105160Y4547D01*
X105228Y4779D01*
X105281Y5019D01*
X105319Y5266D01*
X105342Y5519D01*
X105350Y5779D01*
X105336Y6125D01*
X105297Y6451D01*
X105232Y6757D01*
X105141Y7043D01*
X105024Y7309D01*
X104880Y7555D01*
X104711Y7781D01*
X104515Y7988D01*
X104297Y8172D01*
X104058Y8331D01*
X103798Y8466D01*
X103518Y8576D01*
X103219Y8662D01*
X102898Y8724D01*
X102558Y8760D01*
X102197Y8773D01*
X101852Y8761D01*
X101522Y8725D01*
X101208Y8665D01*
X100910Y8581D01*
X100627Y8473D01*
X100360Y8341D01*
X100108Y8186D01*
X99872Y8006D01*
X99655Y7805D01*
X99462Y7584D01*
X99292Y7344D01*
X99146Y7084D01*
X99024Y6805D01*
X98925Y6507D01*
X98850Y6190D01*
X98798Y5853D01*
X96541Y6061D01*
X96622Y6567D01*
X96743Y7045D01*
X96904Y7497D01*
X97104Y7923D01*
X97344Y8322D01*
X97623Y8695D01*
X97943Y9042D01*
X98302Y9362D01*
X98694Y9649D01*
X99113Y9898D01*
X99559Y10109D01*
X100033Y10282D01*
X100533Y10416D01*
X101061Y10512D01*
X101615Y10569D01*
X102197Y10588D01*
X102831Y10569D01*
X103428Y10511D01*
X103987Y10415D01*
X104508Y10280D01*
X104991Y10107D01*
X105437Y9895D01*
X105844Y9644D01*
X106214Y9355D01*
X106544Y9031D01*
X106829Y8674D01*
X107070Y8285D01*
X107268Y7863D01*
X107422Y7409D01*
X107531Y6923D01*
X107597Y6404D01*
X107619Y5853D01*
X107612Y5602D01*
X107590Y5351D01*
X107554Y5100D01*
X107504Y4850D01*
X107360Y4351D01*
X107159Y3853D01*
X106901Y3356D01*
X106587Y2859D01*
X106217Y2363D01*
X105791Y1866D01*
X105234Y1301D01*
X104469Y599D01*
X103498Y-239D01*
X102319Y-1214D01*
X101650Y-1776D01*
X101053Y-2310D01*
X100527Y-2816D01*
X100074Y-3293D01*
X99686Y-3752D01*
X99357Y-4202D01*
X99085Y-4644D01*
X98872Y-5078D01*
X107889Y-5078D01*
X107889Y-6955D01*
G37*
G36*
X115932Y-6955D02*
X113626Y-6955D01*
X113648Y-6121D01*
X113714Y-5277D01*
X113823Y-4422D01*
X113977Y-3555D01*
X114175Y-2678D01*
X114416Y-1790D01*
X114701Y-891D01*
X115031Y19D01*
X115411Y952D01*
X115851Y1920D01*
X116349Y2922D01*
X116906Y3959D01*
X117522Y5031D01*
X118197Y6137D01*
X118931Y7278D01*
X119723Y8454D01*
X110436Y8454D01*
X110436Y10331D01*
X121858Y10331D01*
X121858Y8540D01*
X120630Y6625D01*
X119597Y4930D01*
X118759Y3454D01*
X118413Y2798D01*
X118116Y2197D01*
X117604Y1054D01*
X117374Y485D01*
X117161Y-82D01*
X116964Y-647D01*
X116785Y-1210D01*
X116623Y-1771D01*
X116478Y-2330D01*
X116350Y-2891D01*
X116239Y-3456D01*
X116146Y-4027D01*
X116069Y-4603D01*
X116009Y-5183D01*
X115966Y-5769D01*
X115941Y-6359D01*
X115932Y-6955D01*
G37*
G36*
X127803Y-6955D02*
X125411Y-6955D01*
X125411Y-4268D01*
X127803Y-4268D01*
X127803Y-6955D01*
G37*
D10*
X266700Y127000D02*
X-57600Y127000D01*
X-57600Y381000D02*
X266700Y381000D01*
X-38100Y380350D02*
X-38100Y127650D01*
X-41292Y153000D01*
X-34908Y153000D01*
X-38100Y127650D01*
X-39400Y153000D01*
X-36800Y153000D02*
X-38100Y127650D01*
X-40700Y153000D01*
X-35500Y153000D02*
X-38100Y127650D01*
X-41292Y355000D02*
X-38100Y380350D01*
X-41292Y355000D02*
X-34908Y355000D01*
X-38100Y380350D01*
X-39400Y355000D01*
X-36800Y355000D02*
X-38100Y380350D01*
X-40700Y355000D01*
X-35500Y355000D02*
X-38100Y380350D01*
X266700Y127000D02*
X266700Y-32200D01*
X-12700Y-32200D02*
X-12700Y215900D01*
X-12050Y-12700D02*
X266050Y-12700D01*
X240700Y-9508D01*
X240700Y-15892D01*
X266050Y-12700D01*
X240700Y-11400D01*
X240700Y-14000D02*
X266050Y-12700D01*
X240700Y-10100D01*
X240700Y-15300D02*
X266050Y-12700D01*
X13300Y-9508D02*
X-12050Y-12700D01*
X13300Y-9508D02*
X13300Y-15892D01*
X-12050Y-12700D01*
X13300Y-11400D01*
X13300Y-14000D02*
X-12050Y-12700D01*
X13300Y-10100D01*
X13300Y-15300D02*
X-12050Y-12700D01*
D11*
X91600Y469900D03*
X111600Y469900D03*
X91600Y53213D03*
X111600Y53213D03*
D12*
X596900Y381000D03*
X546100Y381000D03*
D13*
X447060Y467560D03*
X666060Y467560D03*
D14*
X547372Y317500D02*
X534164Y317500D01*
X534164Y292100D02*
X547372Y292100D01*
X547372Y165100D02*
X534164Y165100D01*
X610364Y165100D02*
X623572Y165100D01*
X547372Y266700D02*
X534164Y266700D01*
X534164Y241300D02*
X547372Y241300D01*
X547372Y190500D02*
X534164Y190500D01*
X534164Y215900D02*
X547372Y215900D01*
X610364Y190500D02*
X623572Y190500D01*
X623572Y215900D02*
X610364Y215900D01*
X610364Y241300D02*
X623572Y241300D01*
X623572Y266700D02*
X610364Y266700D01*
X610364Y292100D02*
X623572Y292100D01*
X623572Y317500D02*
X610364Y317500D01*
D15*
X88900Y127000D03*
X114300Y127000D03*
X139700Y127000D03*
X165100Y127000D03*
X190500Y127000D03*
X215900Y127000D03*
X241300Y127000D03*
X266700Y127000D03*
X292100Y127000D03*
X317500Y127000D03*
X342900Y127000D03*
X368300Y127000D03*
X393700Y127000D03*
X419100Y127000D03*
X444500Y127000D03*
D16*
X444500Y381000D03*
X419100Y381000D03*
X393700Y381000D03*
X368300Y381000D03*
X342900Y381000D03*
X317500Y381000D03*
X292100Y381000D03*
X266700Y381000D03*
X241300Y381000D03*
X215900Y381000D03*
X190500Y381000D03*
X165100Y381000D03*
X139700Y381000D03*
X114300Y381000D03*
X88900Y381000D03*
D17*
X533400Y63500D03*
X635000Y63500D03*
X533400Y105664D03*
X635000Y105664D03*
D18*
X322580Y506691D03*
X322580Y455891D03*
X707900Y330200D03*
X707900Y279400D03*
X707900Y228600D03*
X707900Y177800D03*
M02*
