G04 EAGLE Gerber RS-274X export*
G75*
%MOMM*%
%FSLAX34Y34*%
%LPD*%
%INSilkscreen Top*%
%IPPOS*%
%AMOC8*
5,1,8,0,0,1.08239X$1,22.5*%
G01*
G04 Define Apertures*
%ADD10C,0.200000*%
%ADD11C,0.304800*%
%ADD12C,0.152400*%
%ADD13C,0.127000*%
%ADD14R,0.863600X0.609600*%
G36*
X141548Y497665D02*
X141089Y497677D01*
X140647Y497713D01*
X140220Y497774D01*
X139808Y497859D01*
X139413Y497968D01*
X139033Y498101D01*
X138669Y498258D01*
X138320Y498440D01*
X137990Y498644D01*
X137680Y498869D01*
X137390Y499115D01*
X137121Y499382D01*
X136871Y499669D01*
X136642Y499977D01*
X136433Y500306D01*
X136245Y500656D01*
X136077Y501024D01*
X135932Y501409D01*
X135810Y501811D01*
X135709Y502229D01*
X135631Y502664D01*
X135576Y503115D01*
X135542Y503583D01*
X135531Y504067D01*
X135537Y504431D01*
X135556Y504785D01*
X135587Y505129D01*
X135631Y505463D01*
X135687Y505787D01*
X135755Y506101D01*
X135836Y506405D01*
X135929Y506699D01*
X136035Y506983D01*
X136154Y507257D01*
X136428Y507775D01*
X136751Y508254D01*
X137125Y508692D01*
X137543Y509084D01*
X137999Y509424D01*
X138241Y509574D01*
X138493Y509711D01*
X138754Y509835D01*
X139026Y509946D01*
X139306Y510045D01*
X139596Y510129D01*
X139896Y510201D01*
X140206Y510260D01*
X140525Y510306D01*
X140853Y510339D01*
X141192Y510358D01*
X141539Y510365D01*
X142022Y510353D01*
X142484Y510317D01*
X142926Y510256D01*
X143348Y510172D01*
X143749Y510064D01*
X144131Y509931D01*
X144492Y509775D01*
X144832Y509594D01*
X145152Y509390D01*
X145450Y509162D01*
X145726Y508911D01*
X145980Y508637D01*
X146212Y508340D01*
X146422Y508019D01*
X146610Y507675D01*
X146777Y507308D01*
X145192Y506782D01*
X145076Y507044D01*
X144944Y507289D01*
X144796Y507519D01*
X144632Y507733D01*
X144452Y507931D01*
X144255Y508113D01*
X144042Y508279D01*
X143812Y508429D01*
X143569Y508563D01*
X143315Y508678D01*
X143049Y508776D01*
X142773Y508856D01*
X142486Y508918D01*
X142187Y508963D01*
X141877Y508989D01*
X141557Y508998D01*
X141059Y508978D01*
X140589Y508916D01*
X140148Y508813D01*
X139735Y508669D01*
X139351Y508483D01*
X138995Y508257D01*
X138668Y507989D01*
X138369Y507680D01*
X138102Y507335D01*
X137871Y506960D01*
X137675Y506554D01*
X137515Y506118D01*
X137390Y505651D01*
X137301Y505154D01*
X137248Y504626D01*
X137230Y504067D01*
X137249Y503514D01*
X137304Y502989D01*
X137397Y502491D01*
X137527Y502021D01*
X137694Y501579D01*
X137898Y501165D01*
X138139Y500778D01*
X138417Y500419D01*
X138727Y500096D01*
X139062Y499816D01*
X139425Y499579D01*
X139813Y499385D01*
X140227Y499234D01*
X140668Y499126D01*
X141134Y499061D01*
X141627Y499040D01*
X141946Y499050D01*
X142255Y499080D01*
X142554Y499130D01*
X142843Y499200D01*
X143121Y499291D01*
X143390Y499401D01*
X143649Y499531D01*
X143897Y499681D01*
X144136Y499852D01*
X144365Y500042D01*
X144583Y500253D01*
X144791Y500483D01*
X144990Y500734D01*
X145178Y501005D01*
X145356Y501295D01*
X145524Y501606D01*
X146891Y500923D01*
X146691Y500536D01*
X146471Y500174D01*
X146232Y499835D01*
X145974Y499519D01*
X145697Y499228D01*
X145400Y498961D01*
X145084Y498717D01*
X144749Y498497D01*
X144397Y498302D01*
X144032Y498133D01*
X143652Y497990D01*
X143259Y497873D01*
X142852Y497782D01*
X142431Y497717D01*
X141997Y497678D01*
X141548Y497665D01*
G37*
G36*
X156658Y497840D02*
X148924Y497840D01*
X148924Y499180D01*
X152068Y499180D01*
X152068Y508674D01*
X149283Y506686D01*
X149283Y508175D01*
X152200Y510181D01*
X153653Y510181D01*
X153653Y499180D01*
X156658Y499180D01*
X156658Y497840D01*
G37*
G36*
X166948Y119078D02*
X166490Y119090D01*
X166047Y119126D01*
X165620Y119187D01*
X165208Y119272D01*
X164813Y119381D01*
X164433Y119514D01*
X164069Y119671D01*
X163721Y119853D01*
X163390Y120057D01*
X163080Y120282D01*
X162790Y120528D01*
X162521Y120795D01*
X162271Y121082D01*
X162042Y121390D01*
X161833Y121719D01*
X161645Y122069D01*
X161477Y122437D01*
X161332Y122822D01*
X161210Y123224D01*
X161109Y123642D01*
X161031Y124077D01*
X160976Y124528D01*
X160942Y124996D01*
X160931Y125480D01*
X160937Y125844D01*
X160956Y126198D01*
X160987Y126542D01*
X161031Y126876D01*
X161087Y127200D01*
X161155Y127514D01*
X161236Y127818D01*
X161329Y128112D01*
X161435Y128396D01*
X161554Y128670D01*
X161828Y129188D01*
X162151Y129667D01*
X162525Y130105D01*
X162943Y130497D01*
X163399Y130837D01*
X163641Y130987D01*
X163893Y131124D01*
X164154Y131248D01*
X164426Y131359D01*
X164706Y131458D01*
X164997Y131542D01*
X165296Y131614D01*
X165606Y131673D01*
X165925Y131719D01*
X166253Y131752D01*
X166592Y131771D01*
X166939Y131778D01*
X167422Y131766D01*
X167884Y131730D01*
X168326Y131669D01*
X168748Y131585D01*
X169149Y131477D01*
X169531Y131344D01*
X169892Y131188D01*
X170232Y131007D01*
X170552Y130803D01*
X170850Y130575D01*
X171126Y130324D01*
X171380Y130050D01*
X171612Y129753D01*
X171822Y129432D01*
X172010Y129088D01*
X172177Y128721D01*
X170592Y128195D01*
X170476Y128457D01*
X170344Y128702D01*
X170196Y128932D01*
X170032Y129146D01*
X169852Y129344D01*
X169655Y129526D01*
X169442Y129692D01*
X169212Y129842D01*
X168969Y129976D01*
X168715Y130091D01*
X168450Y130189D01*
X168173Y130269D01*
X167886Y130331D01*
X167587Y130376D01*
X167278Y130402D01*
X166957Y130411D01*
X166459Y130391D01*
X165989Y130329D01*
X165548Y130226D01*
X165135Y130082D01*
X164751Y129896D01*
X164395Y129670D01*
X164068Y129402D01*
X163769Y129093D01*
X163502Y128748D01*
X163271Y128373D01*
X163075Y127967D01*
X162915Y127531D01*
X162790Y127064D01*
X162701Y126567D01*
X162648Y126039D01*
X162630Y125480D01*
X162649Y124927D01*
X162704Y124402D01*
X162797Y123904D01*
X162927Y123434D01*
X163094Y122992D01*
X163298Y122578D01*
X163539Y122191D01*
X163817Y121832D01*
X164127Y121509D01*
X164463Y121229D01*
X164825Y120992D01*
X165213Y120798D01*
X165627Y120647D01*
X166068Y120539D01*
X166534Y120474D01*
X167027Y120453D01*
X167346Y120463D01*
X167655Y120493D01*
X167954Y120543D01*
X168243Y120613D01*
X168521Y120704D01*
X168790Y120814D01*
X169049Y120944D01*
X169298Y121094D01*
X169536Y121265D01*
X169765Y121455D01*
X169983Y121666D01*
X170191Y121896D01*
X170390Y122147D01*
X170578Y122418D01*
X170756Y122708D01*
X170924Y123019D01*
X172291Y122336D01*
X172091Y121949D01*
X171871Y121587D01*
X171632Y121248D01*
X171374Y120932D01*
X171097Y120641D01*
X170800Y120374D01*
X170485Y120130D01*
X170149Y119910D01*
X169798Y119715D01*
X169432Y119546D01*
X169052Y119403D01*
X168659Y119286D01*
X168252Y119195D01*
X167831Y119130D01*
X167397Y119091D01*
X166948Y119078D01*
G37*
G36*
X182031Y119253D02*
X173860Y119253D01*
X173860Y120365D01*
X174095Y120863D01*
X174356Y121330D01*
X174641Y121767D01*
X174950Y122174D01*
X175276Y122557D01*
X175610Y122921D01*
X175953Y123266D01*
X176303Y123593D01*
X177009Y124205D01*
X177709Y124771D01*
X178371Y125314D01*
X178966Y125857D01*
X179233Y126132D01*
X179473Y126413D01*
X179686Y126701D01*
X179872Y126996D01*
X180024Y127303D01*
X180132Y127631D01*
X180197Y127978D01*
X180218Y128344D01*
X180209Y128591D01*
X180181Y128824D01*
X180135Y129042D01*
X180069Y129246D01*
X179986Y129436D01*
X179883Y129612D01*
X179762Y129774D01*
X179623Y129921D01*
X179467Y130052D01*
X179296Y130166D01*
X179111Y130262D01*
X178911Y130341D01*
X178697Y130403D01*
X178468Y130446D01*
X178225Y130473D01*
X177967Y130481D01*
X177721Y130473D01*
X177486Y130447D01*
X177262Y130404D01*
X177049Y130345D01*
X176847Y130268D01*
X176656Y130174D01*
X176476Y130062D01*
X176308Y129934D01*
X176153Y129790D01*
X176015Y129633D01*
X175894Y129461D01*
X175790Y129276D01*
X175702Y129077D01*
X175632Y128864D01*
X175578Y128637D01*
X175541Y128397D01*
X173930Y128546D01*
X173988Y128906D01*
X174074Y129248D01*
X174189Y129571D01*
X174332Y129875D01*
X174503Y130160D01*
X174702Y130426D01*
X174930Y130673D01*
X175187Y130902D01*
X175467Y131107D01*
X175766Y131285D01*
X176085Y131436D01*
X176423Y131559D01*
X176780Y131655D01*
X177156Y131723D01*
X177552Y131764D01*
X177967Y131778D01*
X178420Y131764D01*
X178846Y131723D01*
X179245Y131654D01*
X179617Y131558D01*
X179962Y131434D01*
X180280Y131283D01*
X180572Y131104D01*
X180836Y130897D01*
X181071Y130666D01*
X181275Y130411D01*
X181447Y130133D01*
X181588Y129832D01*
X181698Y129508D01*
X181776Y129161D01*
X181823Y128790D01*
X181839Y128397D01*
X181818Y128038D01*
X181757Y127681D01*
X181654Y127325D01*
X181510Y126969D01*
X181326Y126615D01*
X181102Y126260D01*
X180838Y125905D01*
X180534Y125550D01*
X180136Y125147D01*
X179590Y124646D01*
X178896Y124048D01*
X178055Y123352D01*
X177577Y122950D01*
X177151Y122569D01*
X176776Y122208D01*
X176452Y121867D01*
X176175Y121540D01*
X175940Y121218D01*
X175746Y120903D01*
X175594Y120593D01*
X182031Y120593D01*
X182031Y119253D01*
G37*
G36*
X589789Y351615D02*
X589330Y351627D01*
X588888Y351663D01*
X588460Y351724D01*
X588049Y351809D01*
X587654Y351918D01*
X587274Y352051D01*
X586910Y352208D01*
X586561Y352390D01*
X586231Y352594D01*
X585921Y352819D01*
X585631Y353065D01*
X585361Y353332D01*
X585112Y353619D01*
X584883Y353927D01*
X584674Y354256D01*
X584486Y354606D01*
X584318Y354974D01*
X584173Y355359D01*
X584051Y355761D01*
X583950Y356179D01*
X583872Y356614D01*
X583816Y357065D01*
X583783Y357533D01*
X583772Y358017D01*
X583778Y358381D01*
X583797Y358735D01*
X583828Y359079D01*
X583871Y359413D01*
X583927Y359737D01*
X583996Y360051D01*
X584077Y360355D01*
X584170Y360649D01*
X584276Y360933D01*
X584394Y361207D01*
X584668Y361725D01*
X584992Y362204D01*
X585366Y362642D01*
X585783Y363034D01*
X586239Y363374D01*
X586482Y363524D01*
X586734Y363661D01*
X586995Y363785D01*
X587266Y363896D01*
X587547Y363995D01*
X587837Y364079D01*
X588137Y364151D01*
X588447Y364210D01*
X588766Y364256D01*
X589094Y364289D01*
X589432Y364308D01*
X589780Y364315D01*
X590263Y364303D01*
X590725Y364267D01*
X591167Y364206D01*
X591589Y364122D01*
X591990Y364014D01*
X592371Y363881D01*
X592733Y363725D01*
X593073Y363544D01*
X593393Y363340D01*
X593691Y363112D01*
X593967Y362861D01*
X594221Y362587D01*
X594453Y362290D01*
X594663Y361969D01*
X594851Y361625D01*
X595018Y361258D01*
X593432Y360732D01*
X593317Y360994D01*
X593185Y361239D01*
X593037Y361469D01*
X592873Y361683D01*
X592692Y361881D01*
X592495Y362063D01*
X592282Y362229D01*
X592053Y362379D01*
X591810Y362513D01*
X591556Y362628D01*
X591290Y362726D01*
X591014Y362806D01*
X590726Y362868D01*
X590428Y362913D01*
X590118Y362939D01*
X589798Y362948D01*
X589299Y362928D01*
X588830Y362866D01*
X588389Y362763D01*
X587976Y362619D01*
X587592Y362433D01*
X587236Y362207D01*
X586908Y361939D01*
X586609Y361630D01*
X586343Y361285D01*
X586111Y360910D01*
X585916Y360504D01*
X585756Y360068D01*
X585631Y359601D01*
X585542Y359104D01*
X585489Y358576D01*
X585471Y358017D01*
X585489Y357464D01*
X585545Y356939D01*
X585638Y356441D01*
X585768Y355971D01*
X585934Y355529D01*
X586138Y355115D01*
X586379Y354728D01*
X586658Y354369D01*
X586967Y354046D01*
X587303Y353766D01*
X587665Y353529D01*
X588054Y353335D01*
X588468Y353184D01*
X588908Y353076D01*
X589375Y353011D01*
X589868Y352990D01*
X590187Y353000D01*
X590496Y353030D01*
X590795Y353080D01*
X591083Y353150D01*
X591362Y353241D01*
X591631Y353351D01*
X591890Y353481D01*
X592138Y353631D01*
X592377Y353802D01*
X592605Y353992D01*
X592824Y354203D01*
X593032Y354433D01*
X593231Y354684D01*
X593419Y354955D01*
X593597Y355245D01*
X593765Y355556D01*
X595132Y354873D01*
X594931Y354486D01*
X594712Y354124D01*
X594473Y353785D01*
X594215Y353469D01*
X593938Y353178D01*
X593641Y352911D01*
X593325Y352667D01*
X592990Y352447D01*
X592638Y352252D01*
X592273Y352083D01*
X591893Y351940D01*
X591500Y351823D01*
X591093Y351732D01*
X590672Y351667D01*
X590237Y351628D01*
X589789Y351615D01*
G37*
G36*
X600799Y351615D02*
X600343Y351628D01*
X599910Y351668D01*
X599500Y351734D01*
X599115Y351826D01*
X598752Y351945D01*
X598414Y352090D01*
X598099Y352262D01*
X597808Y352460D01*
X597543Y352684D01*
X597307Y352933D01*
X597098Y353208D01*
X596918Y353508D01*
X596767Y353833D01*
X596643Y354184D01*
X596548Y354559D01*
X596481Y354961D01*
X598111Y355109D01*
X598158Y354844D01*
X598222Y354596D01*
X598301Y354365D01*
X598397Y354152D01*
X598509Y353955D01*
X598636Y353775D01*
X598780Y353613D01*
X598940Y353467D01*
X599117Y353339D01*
X599309Y353228D01*
X599517Y353134D01*
X599741Y353057D01*
X599982Y352997D01*
X600238Y352954D01*
X600511Y352928D01*
X600799Y352920D01*
X601089Y352929D01*
X601363Y352957D01*
X601621Y353002D01*
X601863Y353067D01*
X602088Y353149D01*
X602298Y353250D01*
X602492Y353369D01*
X602669Y353507D01*
X602828Y353662D01*
X602966Y353836D01*
X603083Y354027D01*
X603178Y354236D01*
X603253Y354463D01*
X603306Y354707D01*
X603338Y354969D01*
X603348Y355250D01*
X603336Y355495D01*
X603300Y355726D01*
X603239Y355943D01*
X603154Y356146D01*
X603045Y356336D01*
X602912Y356512D01*
X602755Y356674D01*
X602573Y356822D01*
X602369Y356954D01*
X602143Y357069D01*
X601895Y357166D01*
X601626Y357245D01*
X601336Y357307D01*
X601024Y357351D01*
X600690Y357378D01*
X600335Y357387D01*
X599442Y357387D01*
X599442Y358753D01*
X600300Y358753D01*
X600615Y358762D01*
X600912Y358788D01*
X601190Y358832D01*
X601451Y358894D01*
X601693Y358974D01*
X601917Y359071D01*
X602123Y359186D01*
X602310Y359318D01*
X602478Y359466D01*
X602623Y359628D01*
X602745Y359803D01*
X602846Y359991D01*
X602924Y360193D01*
X602979Y360409D01*
X603013Y360639D01*
X603024Y360881D01*
X603015Y361122D01*
X602988Y361350D01*
X602942Y361565D01*
X602879Y361767D01*
X602797Y361956D01*
X602696Y362132D01*
X602578Y362295D01*
X602442Y362445D01*
X602287Y362579D01*
X602115Y362696D01*
X601925Y362794D01*
X601718Y362875D01*
X601493Y362938D01*
X601250Y362983D01*
X600990Y363009D01*
X600712Y363018D01*
X600458Y363010D01*
X600216Y362985D01*
X599986Y362943D01*
X599769Y362885D01*
X599565Y362810D01*
X599373Y362718D01*
X599193Y362609D01*
X599026Y362484D01*
X598873Y362344D01*
X598738Y362190D01*
X598619Y362022D01*
X598517Y361840D01*
X598432Y361645D01*
X598363Y361436D01*
X598312Y361214D01*
X598277Y360978D01*
X596692Y361100D01*
X596750Y361469D01*
X596836Y361816D01*
X596951Y362143D01*
X597093Y362449D01*
X597265Y362734D01*
X597464Y362999D01*
X597692Y363242D01*
X597949Y363465D01*
X598229Y363664D01*
X598528Y363837D01*
X598847Y363983D01*
X599185Y364102D01*
X599542Y364195D01*
X599918Y364262D01*
X600314Y364301D01*
X600729Y364315D01*
X601181Y364301D01*
X601606Y364261D01*
X602006Y364193D01*
X602379Y364099D01*
X602727Y363978D01*
X603049Y363829D01*
X603345Y363654D01*
X603615Y363452D01*
X603857Y363226D01*
X604066Y362978D01*
X604242Y362710D01*
X604387Y362420D01*
X604500Y362108D01*
X604580Y361776D01*
X604628Y361423D01*
X604644Y361048D01*
X604634Y360759D01*
X604603Y360484D01*
X604551Y360223D01*
X604479Y359976D01*
X604386Y359743D01*
X604272Y359523D01*
X604138Y359317D01*
X603983Y359125D01*
X603808Y358948D01*
X603615Y358785D01*
X603403Y358637D01*
X603172Y358505D01*
X602922Y358387D01*
X602654Y358284D01*
X602367Y358196D01*
X602061Y358122D01*
X602061Y358087D01*
X602397Y358040D01*
X602714Y357974D01*
X603012Y357887D01*
X603291Y357781D01*
X603551Y357655D01*
X603792Y357509D01*
X604013Y357344D01*
X604215Y357159D01*
X604396Y356958D01*
X604552Y356744D01*
X604685Y356518D01*
X604793Y356279D01*
X604878Y356027D01*
X604938Y355763D01*
X604974Y355486D01*
X604986Y355197D01*
X604969Y354782D01*
X604918Y354391D01*
X604833Y354025D01*
X604715Y353682D01*
X604562Y353363D01*
X604375Y353069D01*
X604155Y352798D01*
X603900Y352552D01*
X603614Y352332D01*
X603299Y352142D01*
X602955Y351981D01*
X602582Y351849D01*
X602180Y351747D01*
X601749Y351673D01*
X601289Y351630D01*
X600799Y351615D01*
G37*
G36*
X430964Y527560D02*
X428621Y527560D01*
X428621Y544846D01*
X440901Y544846D01*
X440901Y542932D01*
X430964Y542932D01*
X430964Y536503D01*
X440607Y536503D01*
X440607Y534565D01*
X430964Y534565D01*
X430964Y527560D01*
G37*
G36*
X454650Y527560D02*
X443818Y527560D01*
X443818Y529437D01*
X448222Y529437D01*
X448222Y542736D01*
X444321Y539951D01*
X444321Y542036D01*
X448406Y544846D01*
X450442Y544846D01*
X450442Y529437D01*
X454650Y529437D01*
X454650Y527560D01*
G37*
G36*
X560285Y333835D02*
X559826Y333847D01*
X559383Y333883D01*
X558956Y333944D01*
X558545Y334029D01*
X558150Y334138D01*
X557770Y334271D01*
X557406Y334428D01*
X557057Y334610D01*
X556727Y334814D01*
X556417Y335039D01*
X556127Y335285D01*
X555857Y335552D01*
X555608Y335839D01*
X555379Y336147D01*
X555170Y336476D01*
X554981Y336826D01*
X554814Y337194D01*
X554669Y337579D01*
X554546Y337981D01*
X554446Y338399D01*
X554368Y338834D01*
X554312Y339285D01*
X554279Y339753D01*
X554268Y340237D01*
X554274Y340601D01*
X554293Y340955D01*
X554324Y341299D01*
X554367Y341633D01*
X554423Y341957D01*
X554492Y342271D01*
X554573Y342575D01*
X554666Y342869D01*
X554772Y343153D01*
X554890Y343427D01*
X555164Y343945D01*
X555488Y344424D01*
X555862Y344862D01*
X556279Y345254D01*
X556735Y345594D01*
X556978Y345744D01*
X557230Y345881D01*
X557491Y346005D01*
X557762Y346116D01*
X558043Y346215D01*
X558333Y346299D01*
X558633Y346371D01*
X558943Y346430D01*
X559262Y346476D01*
X559590Y346509D01*
X559928Y346528D01*
X560276Y346535D01*
X560759Y346523D01*
X561221Y346487D01*
X561663Y346426D01*
X562085Y346342D01*
X562486Y346234D01*
X562867Y346101D01*
X563228Y345945D01*
X563569Y345764D01*
X563889Y345560D01*
X564187Y345332D01*
X564463Y345081D01*
X564717Y344807D01*
X564949Y344510D01*
X565159Y344189D01*
X565347Y343845D01*
X565514Y343478D01*
X563928Y342952D01*
X563813Y343214D01*
X563681Y343459D01*
X563533Y343689D01*
X563369Y343903D01*
X563188Y344101D01*
X562991Y344283D01*
X562778Y344449D01*
X562549Y344599D01*
X562306Y344733D01*
X562052Y344848D01*
X561786Y344946D01*
X561510Y345026D01*
X561222Y345088D01*
X560924Y345133D01*
X560614Y345159D01*
X560294Y345168D01*
X559795Y345148D01*
X559326Y345086D01*
X558884Y344983D01*
X558472Y344839D01*
X558087Y344653D01*
X557732Y344427D01*
X557404Y344159D01*
X557105Y343850D01*
X556839Y343505D01*
X556607Y343130D01*
X556412Y342724D01*
X556251Y342288D01*
X556127Y341821D01*
X556038Y341324D01*
X555985Y340796D01*
X555967Y340237D01*
X555985Y339684D01*
X556041Y339159D01*
X556134Y338661D01*
X556263Y338191D01*
X556430Y337749D01*
X556634Y337335D01*
X556875Y336948D01*
X557154Y336589D01*
X557463Y336266D01*
X557799Y335986D01*
X558161Y335749D01*
X558549Y335555D01*
X558964Y335404D01*
X559404Y335296D01*
X559871Y335231D01*
X560364Y335210D01*
X560683Y335220D01*
X560992Y335250D01*
X561291Y335300D01*
X561579Y335370D01*
X561858Y335461D01*
X562127Y335571D01*
X562386Y335701D01*
X562634Y335851D01*
X562873Y336022D01*
X563101Y336212D01*
X563320Y336423D01*
X563528Y336653D01*
X563726Y336904D01*
X563915Y337175D01*
X564093Y337465D01*
X564261Y337776D01*
X565627Y337093D01*
X565427Y336706D01*
X565208Y336344D01*
X564969Y336005D01*
X564711Y335689D01*
X564434Y335398D01*
X564137Y335131D01*
X563821Y334887D01*
X563486Y334667D01*
X563134Y334472D01*
X562769Y334303D01*
X562389Y334160D01*
X561996Y334043D01*
X561589Y333952D01*
X561168Y333887D01*
X560733Y333848D01*
X560285Y333835D01*
G37*
G36*
X575394Y334010D02*
X567661Y334010D01*
X567661Y335350D01*
X570805Y335350D01*
X570805Y344844D01*
X568020Y342856D01*
X568020Y344345D01*
X570936Y346351D01*
X572390Y346351D01*
X572390Y335350D01*
X575394Y335350D01*
X575394Y334010D01*
G37*
G36*
X551716Y334010D02*
X550043Y334010D01*
X550043Y346351D01*
X551716Y346351D01*
X551716Y334010D01*
G37*
G36*
X263359Y146050D02*
X261686Y146050D01*
X261686Y158391D01*
X266880Y158391D01*
X267384Y158376D01*
X267859Y158330D01*
X268305Y158254D01*
X268721Y158148D01*
X269109Y158011D01*
X269466Y157844D01*
X269795Y157646D01*
X270094Y157419D01*
X270361Y157163D01*
X270592Y156883D01*
X270788Y156577D01*
X270948Y156247D01*
X271073Y155892D01*
X271162Y155512D01*
X271215Y155107D01*
X271233Y154677D01*
X271215Y154250D01*
X271161Y153846D01*
X271072Y153464D01*
X270947Y153105D01*
X270786Y152768D01*
X270590Y152454D01*
X270358Y152162D01*
X270090Y151892D01*
X269791Y151650D01*
X269467Y151440D01*
X269118Y151262D01*
X268742Y151117D01*
X268341Y151004D01*
X267915Y150923D01*
X267463Y150875D01*
X266985Y150858D01*
X263359Y150858D01*
X263359Y146050D01*
G37*
%LPC*%
G36*
X266749Y152181D02*
X267088Y152191D01*
X267405Y152220D01*
X267701Y152268D01*
X267975Y152336D01*
X268227Y152423D01*
X268456Y152530D01*
X268664Y152655D01*
X268851Y152801D01*
X269015Y152965D01*
X269157Y153149D01*
X269278Y153353D01*
X269376Y153575D01*
X269453Y153817D01*
X269507Y154079D01*
X269540Y154359D01*
X269551Y154660D01*
X269540Y154949D01*
X269506Y155220D01*
X269450Y155472D01*
X269372Y155706D01*
X269271Y155921D01*
X269147Y156117D01*
X269001Y156294D01*
X268833Y156453D01*
X268642Y156593D01*
X268429Y156714D01*
X268193Y156817D01*
X267935Y156901D01*
X267655Y156967D01*
X267352Y157013D01*
X267026Y157041D01*
X266678Y157051D01*
X263359Y157051D01*
X263359Y152181D01*
X266749Y152181D01*
G37*
%LPD*%
G36*
X281252Y146050D02*
X273518Y146050D01*
X273518Y147390D01*
X276663Y147390D01*
X276663Y156884D01*
X273878Y154896D01*
X273878Y156385D01*
X276794Y158391D01*
X278248Y158391D01*
X278248Y147390D01*
X281252Y147390D01*
X281252Y146050D01*
G37*
G36*
X255249Y145875D02*
X254867Y145888D01*
X254504Y145925D01*
X254162Y145989D01*
X253840Y146077D01*
X253538Y146191D01*
X253255Y146331D01*
X252993Y146495D01*
X252750Y146685D01*
X252527Y146900D01*
X252325Y147141D01*
X252142Y147407D01*
X251979Y147698D01*
X251836Y148014D01*
X251713Y148356D01*
X251609Y148723D01*
X251526Y149115D01*
X253164Y149387D01*
X253210Y149140D01*
X253267Y148907D01*
X253338Y148688D01*
X253420Y148483D01*
X253515Y148292D01*
X253622Y148114D01*
X253742Y147951D01*
X253873Y147802D01*
X254016Y147668D01*
X254167Y147553D01*
X254327Y147455D01*
X254495Y147375D01*
X254673Y147312D01*
X254859Y147268D01*
X255054Y147241D01*
X255257Y147232D01*
X255479Y147242D01*
X255689Y147272D01*
X255886Y147320D01*
X256072Y147389D01*
X256245Y147477D01*
X256407Y147585D01*
X256556Y147712D01*
X256694Y147859D01*
X256817Y148024D01*
X256924Y148208D01*
X257014Y148410D01*
X257088Y148630D01*
X257145Y148869D01*
X257186Y149126D01*
X257211Y149400D01*
X257219Y149694D01*
X257219Y157024D01*
X254846Y157024D01*
X254846Y158391D01*
X258883Y158391D01*
X258883Y149729D01*
X258868Y149292D01*
X258823Y148879D01*
X258747Y148490D01*
X258640Y148125D01*
X258504Y147784D01*
X258336Y147466D01*
X258139Y147173D01*
X257911Y146904D01*
X257657Y146663D01*
X257380Y146454D01*
X257081Y146277D01*
X256759Y146132D01*
X256415Y146020D01*
X256049Y145939D01*
X255660Y145891D01*
X255249Y145875D01*
G37*
G36*
X263359Y349250D02*
X261686Y349250D01*
X261686Y361591D01*
X266880Y361591D01*
X267384Y361576D01*
X267859Y361530D01*
X268305Y361454D01*
X268721Y361348D01*
X269109Y361211D01*
X269466Y361044D01*
X269795Y360846D01*
X270094Y360619D01*
X270361Y360363D01*
X270592Y360083D01*
X270788Y359777D01*
X270948Y359447D01*
X271073Y359092D01*
X271162Y358712D01*
X271215Y358307D01*
X271233Y357877D01*
X271215Y357450D01*
X271161Y357046D01*
X271072Y356664D01*
X270947Y356305D01*
X270786Y355968D01*
X270590Y355654D01*
X270358Y355362D01*
X270090Y355092D01*
X269791Y354850D01*
X269467Y354640D01*
X269118Y354462D01*
X268742Y354317D01*
X268341Y354204D01*
X267915Y354123D01*
X267463Y354075D01*
X266985Y354058D01*
X263359Y354058D01*
X263359Y349250D01*
G37*
%LPC*%
G36*
X266749Y355381D02*
X267088Y355391D01*
X267405Y355420D01*
X267701Y355468D01*
X267975Y355536D01*
X268227Y355623D01*
X268456Y355730D01*
X268664Y355855D01*
X268851Y356001D01*
X269015Y356165D01*
X269157Y356349D01*
X269278Y356553D01*
X269376Y356775D01*
X269453Y357017D01*
X269507Y357279D01*
X269540Y357559D01*
X269551Y357860D01*
X269540Y358149D01*
X269506Y358420D01*
X269450Y358672D01*
X269372Y358906D01*
X269271Y359121D01*
X269147Y359317D01*
X269001Y359494D01*
X268833Y359653D01*
X268642Y359793D01*
X268429Y359914D01*
X268193Y360017D01*
X267935Y360101D01*
X267655Y360167D01*
X267352Y360213D01*
X267026Y360241D01*
X266678Y360251D01*
X263359Y360251D01*
X263359Y355381D01*
X266749Y355381D01*
G37*
%LPD*%
G36*
X281226Y349250D02*
X273054Y349250D01*
X273054Y350362D01*
X273290Y350860D01*
X273550Y351327D01*
X273835Y351764D01*
X274145Y352171D01*
X274471Y352554D01*
X274805Y352918D01*
X275147Y353263D01*
X275498Y353590D01*
X276204Y354202D01*
X276904Y354768D01*
X277566Y355311D01*
X278161Y355854D01*
X278427Y356129D01*
X278667Y356410D01*
X278881Y356698D01*
X279067Y356993D01*
X279218Y357300D01*
X279326Y357628D01*
X279391Y357975D01*
X279413Y358341D01*
X279404Y358588D01*
X279376Y358821D01*
X279329Y359039D01*
X279264Y359243D01*
X279180Y359433D01*
X279078Y359609D01*
X278957Y359771D01*
X278817Y359918D01*
X278661Y360049D01*
X278491Y360163D01*
X278305Y360259D01*
X278106Y360338D01*
X277892Y360400D01*
X277663Y360443D01*
X277420Y360470D01*
X277162Y360478D01*
X276916Y360470D01*
X276681Y360444D01*
X276457Y360401D01*
X276243Y360342D01*
X276042Y360265D01*
X275851Y360171D01*
X275671Y360059D01*
X275502Y359931D01*
X275348Y359787D01*
X275210Y359630D01*
X275089Y359458D01*
X274984Y359273D01*
X274897Y359074D01*
X274827Y358861D01*
X274773Y358634D01*
X274736Y358394D01*
X273124Y358543D01*
X273182Y358903D01*
X273269Y359245D01*
X273383Y359568D01*
X273526Y359872D01*
X273697Y360157D01*
X273897Y360423D01*
X274125Y360670D01*
X274381Y360899D01*
X274661Y361104D01*
X274961Y361282D01*
X275279Y361433D01*
X275617Y361556D01*
X275975Y361652D01*
X276351Y361720D01*
X276747Y361761D01*
X277162Y361775D01*
X277615Y361761D01*
X278041Y361720D01*
X278440Y361651D01*
X278812Y361555D01*
X279157Y361431D01*
X279475Y361280D01*
X279766Y361101D01*
X280030Y360894D01*
X280266Y360663D01*
X280469Y360408D01*
X280642Y360130D01*
X280783Y359829D01*
X280892Y359505D01*
X280971Y359158D01*
X281018Y358787D01*
X281033Y358394D01*
X281013Y358035D01*
X280951Y357678D01*
X280849Y357322D01*
X280705Y356966D01*
X280521Y356612D01*
X280297Y356257D01*
X280032Y355902D01*
X279728Y355547D01*
X279330Y355144D01*
X278785Y354643D01*
X278091Y354045D01*
X277250Y353349D01*
X276772Y352947D01*
X276345Y352566D01*
X275970Y352205D01*
X275647Y351864D01*
X275370Y351537D01*
X275134Y351215D01*
X274941Y350900D01*
X274788Y350590D01*
X281226Y350590D01*
X281226Y349250D01*
G37*
G36*
X255249Y349075D02*
X254867Y349088D01*
X254504Y349125D01*
X254162Y349189D01*
X253840Y349277D01*
X253538Y349391D01*
X253255Y349531D01*
X252993Y349695D01*
X252750Y349885D01*
X252527Y350100D01*
X252325Y350341D01*
X252142Y350607D01*
X251979Y350898D01*
X251836Y351214D01*
X251713Y351556D01*
X251609Y351923D01*
X251526Y352315D01*
X253164Y352587D01*
X253210Y352340D01*
X253267Y352107D01*
X253338Y351888D01*
X253420Y351683D01*
X253515Y351492D01*
X253622Y351314D01*
X253742Y351151D01*
X253873Y351002D01*
X254016Y350868D01*
X254167Y350753D01*
X254327Y350655D01*
X254495Y350575D01*
X254673Y350512D01*
X254859Y350468D01*
X255054Y350441D01*
X255257Y350432D01*
X255479Y350442D01*
X255689Y350472D01*
X255886Y350520D01*
X256072Y350589D01*
X256245Y350677D01*
X256407Y350785D01*
X256556Y350912D01*
X256694Y351059D01*
X256817Y351224D01*
X256924Y351408D01*
X257014Y351610D01*
X257088Y351830D01*
X257145Y352069D01*
X257186Y352326D01*
X257211Y352600D01*
X257219Y352894D01*
X257219Y360224D01*
X254846Y360224D01*
X254846Y361591D01*
X258883Y361591D01*
X258883Y352929D01*
X258868Y352492D01*
X258823Y352079D01*
X258747Y351690D01*
X258640Y351325D01*
X258504Y350984D01*
X258336Y350666D01*
X258139Y350373D01*
X257911Y350104D01*
X257657Y349863D01*
X257380Y349654D01*
X257081Y349477D01*
X256759Y349332D01*
X256415Y349220D01*
X256049Y349139D01*
X255660Y349091D01*
X255249Y349075D01*
G37*
G36*
X556864Y78740D02*
X555191Y78740D01*
X555191Y91081D01*
X560998Y91081D01*
X561505Y91066D01*
X561981Y91022D01*
X562428Y90950D01*
X562845Y90848D01*
X563233Y90716D01*
X563591Y90556D01*
X563919Y90367D01*
X564217Y90148D01*
X564483Y89903D01*
X564713Y89636D01*
X564908Y89346D01*
X565068Y89032D01*
X565192Y88696D01*
X565280Y88337D01*
X565334Y87956D01*
X565351Y87551D01*
X565339Y87214D01*
X565301Y86891D01*
X565239Y86581D01*
X565151Y86285D01*
X565038Y86003D01*
X564901Y85735D01*
X564738Y85480D01*
X564550Y85239D01*
X564340Y85015D01*
X564111Y84814D01*
X563863Y84633D01*
X563752Y84567D01*
X563596Y84475D01*
X563310Y84338D01*
X563005Y84222D01*
X562681Y84129D01*
X562338Y84056D01*
X563830Y81793D01*
X565842Y78740D01*
X563915Y78740D01*
X560709Y83864D01*
X556864Y83864D01*
X556864Y78740D01*
G37*
%LPC*%
G36*
X560902Y85186D02*
X561223Y85196D01*
X561526Y85225D01*
X561810Y85273D01*
X562075Y85341D01*
X562321Y85427D01*
X562548Y85534D01*
X562757Y85659D01*
X562947Y85804D01*
X563116Y85966D01*
X563263Y86143D01*
X563387Y86336D01*
X563489Y86545D01*
X563568Y86769D01*
X563625Y87008D01*
X563658Y87263D01*
X563670Y87534D01*
X563658Y87795D01*
X563624Y88040D01*
X563567Y88270D01*
X563487Y88483D01*
X563384Y88680D01*
X563258Y88861D01*
X563110Y89027D01*
X562938Y89176D01*
X562745Y89308D01*
X562532Y89423D01*
X562299Y89520D01*
X562046Y89600D01*
X561773Y89661D01*
X561479Y89705D01*
X561166Y89732D01*
X560832Y89741D01*
X556864Y89741D01*
X556864Y85186D01*
X560902Y85186D01*
G37*
%LPD*%
G36*
X575758Y78740D02*
X568024Y78740D01*
X568024Y80080D01*
X571168Y80080D01*
X571168Y89574D01*
X568383Y87586D01*
X568383Y89075D01*
X571300Y91081D01*
X572753Y91081D01*
X572753Y80080D01*
X575758Y80080D01*
X575758Y78740D01*
G37*
G36*
X556864Y120904D02*
X555191Y120904D01*
X555191Y133245D01*
X560998Y133245D01*
X561505Y133230D01*
X561981Y133186D01*
X562428Y133114D01*
X562845Y133012D01*
X563233Y132880D01*
X563591Y132720D01*
X563919Y132531D01*
X564217Y132312D01*
X564483Y132067D01*
X564713Y131800D01*
X564908Y131510D01*
X565068Y131196D01*
X565192Y130860D01*
X565280Y130501D01*
X565334Y130120D01*
X565351Y129715D01*
X565339Y129378D01*
X565301Y129055D01*
X565239Y128745D01*
X565151Y128449D01*
X565038Y128167D01*
X564901Y127899D01*
X564738Y127644D01*
X564550Y127403D01*
X564340Y127179D01*
X564111Y126978D01*
X563863Y126797D01*
X563752Y126731D01*
X563596Y126639D01*
X563310Y126502D01*
X563005Y126386D01*
X562681Y126293D01*
X562338Y126220D01*
X563830Y123957D01*
X565842Y120904D01*
X563915Y120904D01*
X560709Y126028D01*
X556864Y126028D01*
X556864Y120904D01*
G37*
%LPC*%
G36*
X560902Y127350D02*
X561223Y127360D01*
X561526Y127389D01*
X561810Y127437D01*
X562075Y127505D01*
X562321Y127591D01*
X562548Y127698D01*
X562757Y127823D01*
X562947Y127968D01*
X563116Y128130D01*
X563263Y128307D01*
X563387Y128500D01*
X563489Y128709D01*
X563568Y128933D01*
X563625Y129172D01*
X563658Y129427D01*
X563670Y129698D01*
X563658Y129959D01*
X563624Y130204D01*
X563567Y130434D01*
X563487Y130647D01*
X563384Y130844D01*
X563258Y131025D01*
X563110Y131191D01*
X562938Y131340D01*
X562745Y131472D01*
X562532Y131587D01*
X562299Y131684D01*
X562046Y131764D01*
X561773Y131825D01*
X561479Y131869D01*
X561166Y131896D01*
X560832Y131905D01*
X556864Y131905D01*
X556864Y127350D01*
X560902Y127350D01*
G37*
%LPD*%
G36*
X575731Y120904D02*
X567560Y120904D01*
X567560Y122016D01*
X567795Y122514D01*
X568056Y122981D01*
X568341Y123418D01*
X568650Y123825D01*
X568976Y124208D01*
X569310Y124572D01*
X569653Y124917D01*
X570003Y125244D01*
X570709Y125856D01*
X571409Y126422D01*
X572071Y126965D01*
X572666Y127508D01*
X572933Y127783D01*
X573173Y128064D01*
X573386Y128352D01*
X573572Y128647D01*
X573724Y128954D01*
X573832Y129282D01*
X573897Y129629D01*
X573918Y129995D01*
X573909Y130242D01*
X573881Y130475D01*
X573835Y130693D01*
X573769Y130897D01*
X573686Y131087D01*
X573583Y131263D01*
X573462Y131425D01*
X573323Y131572D01*
X573167Y131703D01*
X572996Y131817D01*
X572811Y131913D01*
X572611Y131992D01*
X572397Y132054D01*
X572168Y132097D01*
X571925Y132124D01*
X571667Y132132D01*
X571421Y132124D01*
X571186Y132098D01*
X570962Y132055D01*
X570749Y131996D01*
X570547Y131919D01*
X570356Y131825D01*
X570176Y131713D01*
X570008Y131585D01*
X569853Y131441D01*
X569715Y131284D01*
X569594Y131112D01*
X569490Y130927D01*
X569402Y130728D01*
X569332Y130515D01*
X569278Y130288D01*
X569241Y130048D01*
X567630Y130197D01*
X567688Y130557D01*
X567774Y130899D01*
X567889Y131222D01*
X568031Y131526D01*
X568203Y131811D01*
X568402Y132077D01*
X568630Y132324D01*
X568887Y132553D01*
X569167Y132758D01*
X569466Y132936D01*
X569785Y133087D01*
X570123Y133210D01*
X570480Y133306D01*
X570856Y133374D01*
X571252Y133415D01*
X571667Y133429D01*
X572120Y133415D01*
X572546Y133374D01*
X572945Y133305D01*
X573317Y133209D01*
X573662Y133085D01*
X573980Y132934D01*
X574272Y132755D01*
X574536Y132548D01*
X574771Y132317D01*
X574975Y132062D01*
X575147Y131784D01*
X575288Y131483D01*
X575398Y131159D01*
X575476Y130812D01*
X575523Y130441D01*
X575539Y130048D01*
X575518Y129689D01*
X575457Y129332D01*
X575354Y128976D01*
X575210Y128620D01*
X575026Y128266D01*
X574802Y127911D01*
X574538Y127556D01*
X574234Y127201D01*
X573836Y126798D01*
X573290Y126297D01*
X572596Y125699D01*
X571755Y125003D01*
X571277Y124601D01*
X570851Y124220D01*
X570476Y123859D01*
X570152Y123518D01*
X569875Y123191D01*
X569640Y122869D01*
X569446Y122554D01*
X569294Y122244D01*
X575731Y122244D01*
X575731Y120904D01*
G37*
G36*
X350249Y487678D02*
X349924Y489167D01*
X350177Y489229D01*
X350413Y489306D01*
X350634Y489398D01*
X350838Y489505D01*
X351025Y489627D01*
X351197Y489764D01*
X351353Y489916D01*
X351492Y490082D01*
X351617Y490265D01*
X351727Y490465D01*
X351824Y490682D01*
X351906Y490916D01*
X351975Y491167D01*
X352029Y491435D01*
X352065Y491687D01*
X352070Y491720D01*
X352097Y492022D01*
X347752Y492022D01*
X347565Y491307D01*
X347387Y490712D01*
X347306Y490483D01*
X347219Y490236D01*
X347060Y489881D01*
X346901Y489600D01*
X346731Y489347D01*
X346549Y489122D01*
X346355Y488926D01*
X346153Y488757D01*
X345943Y488613D01*
X345726Y488494D01*
X345501Y488401D01*
X345262Y488330D01*
X345000Y488279D01*
X344715Y488249D01*
X344407Y488239D01*
X344076Y488254D01*
X343765Y488300D01*
X343472Y488377D01*
X343197Y488485D01*
X342941Y488624D01*
X342703Y488793D01*
X342483Y488993D01*
X342283Y489224D01*
X342102Y489483D01*
X341942Y489768D01*
X341805Y490079D01*
X341688Y490416D01*
X341593Y490779D01*
X341520Y491168D01*
X341468Y491582D01*
X341437Y492022D01*
X340290Y492022D01*
X340290Y493108D01*
X341437Y493108D01*
X341466Y493506D01*
X341513Y493881D01*
X341578Y494232D01*
X341662Y494560D01*
X341763Y494865D01*
X341883Y495146D01*
X342021Y495405D01*
X342178Y495640D01*
X342354Y495855D01*
X342554Y496054D01*
X342778Y496236D01*
X343024Y496402D01*
X343293Y496551D01*
X343586Y496684D01*
X343901Y496801D01*
X344240Y496901D01*
X344529Y495377D01*
X344140Y495267D01*
X343797Y495112D01*
X343499Y494912D01*
X343246Y494667D01*
X343137Y494526D01*
X343039Y494370D01*
X342952Y494198D01*
X342877Y494011D01*
X342813Y493808D01*
X342761Y493590D01*
X342720Y493357D01*
X342690Y493108D01*
X346587Y493108D01*
X346768Y493836D01*
X346940Y494450D01*
X347105Y494950D01*
X347262Y495338D01*
X347420Y495651D01*
X347588Y495930D01*
X347766Y496174D01*
X347954Y496384D01*
X348155Y496565D01*
X348374Y496724D01*
X348611Y496859D01*
X348865Y496971D01*
X349139Y497059D01*
X349436Y497122D01*
X349756Y497160D01*
X350100Y497172D01*
X350452Y497156D01*
X350787Y497106D01*
X351103Y497023D01*
X351402Y496907D01*
X351684Y496758D01*
X351947Y496576D01*
X352193Y496361D01*
X352421Y496113D01*
X352627Y495834D01*
X352810Y495527D01*
X352968Y495193D01*
X353102Y494832D01*
X353211Y494442D01*
X353296Y494025D01*
X353357Y493581D01*
X353393Y493108D01*
X354812Y493108D01*
X354812Y492022D01*
X353393Y492022D01*
X353362Y491568D01*
X353309Y491138D01*
X353234Y490733D01*
X353137Y490352D01*
X353018Y489995D01*
X352877Y489663D01*
X352713Y489354D01*
X352528Y489071D01*
X352320Y488811D01*
X352091Y488576D01*
X351839Y488366D01*
X351565Y488180D01*
X351269Y488018D01*
X350951Y487880D01*
X350611Y487767D01*
X350249Y487678D01*
G37*
%LPC*%
G36*
X352105Y493108D02*
X352079Y493408D01*
X352066Y493498D01*
X352039Y493690D01*
X351986Y493954D01*
X351919Y494200D01*
X351839Y494428D01*
X351746Y494638D01*
X351639Y494830D01*
X351519Y495005D01*
X351386Y495160D01*
X351240Y495294D01*
X351083Y495408D01*
X350914Y495501D01*
X350733Y495573D01*
X350540Y495625D01*
X350334Y495656D01*
X350117Y495666D01*
X349845Y495652D01*
X349598Y495609D01*
X349377Y495538D01*
X349180Y495438D01*
X349004Y495312D01*
X348844Y495160D01*
X348700Y494983D01*
X348571Y494781D01*
X348446Y494516D01*
X348310Y494149D01*
X348163Y493679D01*
X348006Y493108D01*
X352105Y493108D01*
G37*
G36*
X344389Y489745D02*
X344638Y489759D01*
X344866Y489800D01*
X345076Y489868D01*
X345265Y489964D01*
X345270Y489968D01*
X345437Y490087D01*
X345596Y490237D01*
X345740Y490413D01*
X345869Y490617D01*
X345992Y490867D01*
X346115Y491185D01*
X346237Y491570D01*
X346360Y492022D01*
X342672Y492022D01*
X342693Y491747D01*
X342726Y491489D01*
X342770Y491248D01*
X342826Y491026D01*
X342893Y490822D01*
X342971Y490635D01*
X343061Y490466D01*
X343163Y490314D01*
X343276Y490181D01*
X343400Y490065D01*
X343536Y489968D01*
X343684Y489887D01*
X343843Y489825D01*
X344014Y489781D01*
X344196Y489754D01*
X344389Y489745D01*
G37*
%LPD*%
G36*
X349084Y475932D02*
X341227Y475932D01*
X341227Y477605D01*
X348944Y477605D01*
X349353Y477618D01*
X349738Y477658D01*
X350097Y477725D01*
X350430Y477819D01*
X350738Y477940D01*
X351021Y478088D01*
X351278Y478262D01*
X351510Y478463D01*
X351715Y478690D01*
X351893Y478940D01*
X352043Y479214D01*
X352167Y479512D01*
X352262Y479834D01*
X352331Y480179D01*
X352372Y480549D01*
X352386Y480942D01*
X352371Y481346D01*
X352329Y481728D01*
X352258Y482086D01*
X352159Y482421D01*
X352032Y482733D01*
X351876Y483022D01*
X351692Y483287D01*
X351479Y483530D01*
X351239Y483746D01*
X350974Y483934D01*
X350682Y484093D01*
X350363Y484223D01*
X350019Y484324D01*
X349649Y484396D01*
X349252Y484439D01*
X348830Y484454D01*
X341227Y484454D01*
X341227Y486118D01*
X348926Y486118D01*
X349294Y486108D01*
X349649Y486078D01*
X349991Y486029D01*
X350321Y485959D01*
X350637Y485870D01*
X350941Y485761D01*
X351232Y485632D01*
X351510Y485483D01*
X351773Y485316D01*
X352021Y485133D01*
X352252Y484933D01*
X352468Y484717D01*
X352667Y484484D01*
X352851Y484235D01*
X353018Y483969D01*
X353170Y483688D01*
X353304Y483391D01*
X353421Y483081D01*
X353519Y482759D01*
X353600Y482423D01*
X353662Y482074D01*
X353707Y481713D01*
X353734Y481338D01*
X353743Y480950D01*
X353735Y480578D01*
X353709Y480217D01*
X353666Y479868D01*
X353605Y479532D01*
X353528Y479207D01*
X353433Y478894D01*
X353321Y478594D01*
X353191Y478305D01*
X353046Y478031D01*
X352884Y477772D01*
X352707Y477529D01*
X352515Y477303D01*
X352307Y477092D01*
X352083Y476896D01*
X351844Y476717D01*
X351589Y476554D01*
X351320Y476408D01*
X351038Y476282D01*
X350744Y476175D01*
X350437Y476087D01*
X350117Y476019D01*
X349785Y475971D01*
X349441Y475942D01*
X349084Y475932D01*
G37*
G36*
X353568Y498821D02*
X352228Y498821D01*
X352228Y501965D01*
X342734Y501965D01*
X344722Y499180D01*
X343233Y499180D01*
X341227Y502096D01*
X341227Y503550D01*
X352228Y503550D01*
X352228Y506554D01*
X353568Y506554D01*
X353568Y498821D01*
G37*
G36*
X735569Y285787D02*
X735244Y287276D01*
X735497Y287339D01*
X735733Y287416D01*
X735954Y287508D01*
X736158Y287615D01*
X736345Y287737D01*
X736517Y287873D01*
X736673Y288025D01*
X736812Y288192D01*
X736937Y288374D01*
X737047Y288574D01*
X737144Y288791D01*
X737226Y289025D01*
X737295Y289276D01*
X737349Y289544D01*
X737385Y289796D01*
X737390Y289829D01*
X737417Y290132D01*
X733072Y290132D01*
X732885Y289416D01*
X732707Y288821D01*
X732626Y288592D01*
X732539Y288346D01*
X732380Y287990D01*
X732221Y287709D01*
X732051Y287456D01*
X731869Y287231D01*
X731675Y287035D01*
X731473Y286866D01*
X731263Y286722D01*
X731046Y286604D01*
X730821Y286510D01*
X730582Y286439D01*
X730320Y286388D01*
X730035Y286358D01*
X729727Y286348D01*
X729396Y286363D01*
X729085Y286410D01*
X728792Y286487D01*
X728517Y286594D01*
X728261Y286733D01*
X728023Y286902D01*
X727803Y287102D01*
X727603Y287333D01*
X727422Y287593D01*
X727262Y287878D01*
X727125Y288189D01*
X727008Y288526D01*
X726913Y288888D01*
X726840Y289277D01*
X726788Y289691D01*
X726757Y290132D01*
X725610Y290132D01*
X725610Y291218D01*
X726757Y291218D01*
X726786Y291616D01*
X726833Y291990D01*
X726898Y292341D01*
X726982Y292669D01*
X727083Y292974D01*
X727203Y293256D01*
X727341Y293514D01*
X727498Y293749D01*
X727674Y293964D01*
X727874Y294163D01*
X728098Y294345D01*
X728344Y294511D01*
X728613Y294660D01*
X728906Y294793D01*
X729221Y294910D01*
X729560Y295010D01*
X729849Y293486D01*
X729460Y293376D01*
X729117Y293221D01*
X728819Y293021D01*
X728566Y292777D01*
X728457Y292635D01*
X728359Y292479D01*
X728272Y292307D01*
X728197Y292120D01*
X728133Y291917D01*
X728081Y291699D01*
X728040Y291466D01*
X728010Y291218D01*
X731907Y291218D01*
X732088Y291945D01*
X732260Y292559D01*
X732425Y293059D01*
X732582Y293447D01*
X732740Y293760D01*
X732908Y294039D01*
X733086Y294283D01*
X733274Y294493D01*
X733475Y294675D01*
X733694Y294833D01*
X733931Y294968D01*
X734185Y295080D01*
X734459Y295168D01*
X734756Y295231D01*
X735076Y295269D01*
X735420Y295282D01*
X735772Y295265D01*
X736107Y295215D01*
X736423Y295133D01*
X736722Y295017D01*
X737004Y294868D01*
X737267Y294686D01*
X737513Y294470D01*
X737741Y294222D01*
X737947Y293943D01*
X738130Y293637D01*
X738288Y293303D01*
X738422Y292941D01*
X738531Y292552D01*
X738616Y292135D01*
X738677Y291690D01*
X738713Y291218D01*
X740132Y291218D01*
X740132Y290132D01*
X738713Y290132D01*
X738682Y289677D01*
X738629Y289248D01*
X738554Y288842D01*
X738457Y288461D01*
X738338Y288104D01*
X738197Y287772D01*
X738033Y287464D01*
X737848Y287180D01*
X737640Y286921D01*
X737411Y286686D01*
X737159Y286475D01*
X736885Y286289D01*
X736589Y286127D01*
X736271Y285989D01*
X735931Y285876D01*
X735569Y285787D01*
G37*
%LPC*%
G36*
X737425Y291218D02*
X737399Y291517D01*
X737386Y291607D01*
X737359Y291799D01*
X737306Y292063D01*
X737239Y292309D01*
X737159Y292537D01*
X737066Y292747D01*
X736959Y292940D01*
X736839Y293114D01*
X736706Y293269D01*
X736560Y293403D01*
X736403Y293517D01*
X736234Y293610D01*
X736053Y293682D01*
X735860Y293734D01*
X735654Y293765D01*
X735437Y293775D01*
X735165Y293761D01*
X734918Y293718D01*
X734697Y293647D01*
X734500Y293547D01*
X734324Y293421D01*
X734164Y293269D01*
X734020Y293093D01*
X733891Y292891D01*
X733766Y292625D01*
X733630Y292258D01*
X733483Y291789D01*
X733326Y291218D01*
X737425Y291218D01*
G37*
G36*
X729709Y287854D02*
X729958Y287868D01*
X730186Y287909D01*
X730396Y287978D01*
X730585Y288073D01*
X730590Y288077D01*
X730757Y288196D01*
X730916Y288346D01*
X731060Y288523D01*
X731189Y288726D01*
X731312Y288976D01*
X731435Y289294D01*
X731557Y289679D01*
X731680Y290132D01*
X727992Y290132D01*
X728013Y289856D01*
X728046Y289598D01*
X728090Y289358D01*
X728146Y289135D01*
X728213Y288931D01*
X728291Y288744D01*
X728381Y288575D01*
X728483Y288424D01*
X728596Y288290D01*
X728720Y288175D01*
X728856Y288077D01*
X729004Y287997D01*
X729163Y287934D01*
X729334Y287890D01*
X729516Y287863D01*
X729709Y287854D01*
G37*
%LPD*%
G36*
X734404Y274041D02*
X726547Y274041D01*
X726547Y275714D01*
X734264Y275714D01*
X734673Y275727D01*
X735058Y275768D01*
X735417Y275835D01*
X735750Y275929D01*
X736058Y276049D01*
X736341Y276197D01*
X736598Y276371D01*
X736830Y276572D01*
X737035Y276799D01*
X737213Y277049D01*
X737363Y277323D01*
X737487Y277621D01*
X737582Y277943D01*
X737651Y278288D01*
X737692Y278658D01*
X737706Y279051D01*
X737691Y279455D01*
X737649Y279837D01*
X737578Y280195D01*
X737479Y280530D01*
X737352Y280842D01*
X737196Y281131D01*
X737012Y281397D01*
X736799Y281639D01*
X736559Y281856D01*
X736294Y282043D01*
X736002Y282202D01*
X735683Y282332D01*
X735339Y282433D01*
X734969Y282505D01*
X734572Y282549D01*
X734150Y282563D01*
X726547Y282563D01*
X726547Y284227D01*
X734246Y284227D01*
X734614Y284217D01*
X734969Y284188D01*
X735311Y284138D01*
X735641Y284069D01*
X735957Y283979D01*
X736261Y283870D01*
X736552Y283741D01*
X736830Y283592D01*
X737093Y283425D01*
X737341Y283242D01*
X737572Y283042D01*
X737788Y282826D01*
X737987Y282593D01*
X738171Y282344D01*
X738338Y282079D01*
X738490Y281797D01*
X738624Y281500D01*
X738741Y281191D01*
X738839Y280868D01*
X738920Y280532D01*
X738982Y280184D01*
X739027Y279822D01*
X739054Y279447D01*
X739063Y279060D01*
X739055Y278687D01*
X739029Y278326D01*
X738986Y277977D01*
X738925Y277641D01*
X738848Y277316D01*
X738753Y277004D01*
X738641Y276703D01*
X738511Y276415D01*
X738366Y276140D01*
X738204Y275881D01*
X738027Y275639D01*
X737835Y275412D01*
X737627Y275201D01*
X737403Y275006D01*
X737164Y274826D01*
X736909Y274663D01*
X736640Y274517D01*
X736358Y274391D01*
X736064Y274284D01*
X735757Y274197D01*
X735437Y274129D01*
X735105Y274080D01*
X734761Y274051D01*
X734404Y274041D01*
G37*
G36*
X738888Y296466D02*
X737776Y296466D01*
X737278Y296701D01*
X736811Y296962D01*
X736374Y297246D01*
X735967Y297556D01*
X735584Y297882D01*
X735220Y298216D01*
X734875Y298559D01*
X734548Y298909D01*
X733936Y299615D01*
X733370Y300315D01*
X732827Y300977D01*
X732284Y301572D01*
X732009Y301839D01*
X731728Y302079D01*
X731440Y302292D01*
X731145Y302478D01*
X730838Y302630D01*
X730510Y302738D01*
X730163Y302803D01*
X729797Y302824D01*
X729550Y302815D01*
X729317Y302787D01*
X729099Y302741D01*
X728895Y302675D01*
X728705Y302592D01*
X728529Y302489D01*
X728367Y302368D01*
X728220Y302229D01*
X728089Y302073D01*
X727975Y301902D01*
X727879Y301717D01*
X727800Y301517D01*
X727738Y301303D01*
X727695Y301074D01*
X727668Y300831D01*
X727660Y300573D01*
X727668Y300327D01*
X727694Y300092D01*
X727737Y299868D01*
X727796Y299655D01*
X727873Y299453D01*
X727967Y299262D01*
X728079Y299082D01*
X728207Y298914D01*
X728351Y298759D01*
X728508Y298621D01*
X728680Y298500D01*
X728865Y298396D01*
X729064Y298308D01*
X729277Y298238D01*
X729504Y298184D01*
X729744Y298147D01*
X729595Y296536D01*
X729235Y296594D01*
X728893Y296680D01*
X728570Y296795D01*
X728266Y296937D01*
X727981Y297109D01*
X727715Y297308D01*
X727468Y297536D01*
X727239Y297793D01*
X727034Y298073D01*
X726856Y298372D01*
X726705Y298691D01*
X726582Y299029D01*
X726486Y299386D01*
X726418Y299762D01*
X726377Y300158D01*
X726363Y300573D01*
X726377Y301026D01*
X726418Y301452D01*
X726487Y301851D01*
X726583Y302223D01*
X726707Y302568D01*
X726858Y302886D01*
X727037Y303178D01*
X727244Y303442D01*
X727475Y303677D01*
X727730Y303881D01*
X728008Y304053D01*
X728309Y304194D01*
X728633Y304304D01*
X728980Y304382D01*
X729351Y304429D01*
X729744Y304445D01*
X730103Y304424D01*
X730460Y304363D01*
X730816Y304260D01*
X731172Y304116D01*
X731526Y303932D01*
X731881Y303708D01*
X732236Y303444D01*
X732591Y303140D01*
X732994Y302742D01*
X733495Y302196D01*
X734093Y301502D01*
X734789Y300661D01*
X735191Y300183D01*
X735572Y299757D01*
X735933Y299382D01*
X736274Y299058D01*
X736601Y298781D01*
X736923Y298546D01*
X737238Y298352D01*
X737548Y298200D01*
X737548Y304637D01*
X738888Y304637D01*
X738888Y296466D01*
G37*
D10*
X75600Y469900D02*
X75608Y470538D01*
X75631Y471176D01*
X75670Y471813D01*
X75725Y472448D01*
X75796Y473083D01*
X75881Y473715D01*
X75983Y474345D01*
X76100Y474972D01*
X76232Y475597D01*
X76379Y476217D01*
X76542Y476835D01*
X76720Y477447D01*
X76912Y478056D01*
X77120Y478659D01*
X77342Y479257D01*
X77579Y479850D01*
X77831Y480436D01*
X78096Y481016D01*
X78376Y481590D01*
X78670Y482156D01*
X78978Y482715D01*
X79299Y483267D01*
X79634Y483810D01*
X79982Y484345D01*
X80343Y484871D01*
X80717Y485388D01*
X81103Y485896D01*
X81502Y486394D01*
X81913Y486882D01*
X82335Y487361D01*
X82770Y487828D01*
X83215Y488285D01*
X83672Y488730D01*
X84139Y489165D01*
X84618Y489587D01*
X85106Y489998D01*
X85604Y490397D01*
X86112Y490783D01*
X86629Y491157D01*
X87155Y491518D01*
X87690Y491866D01*
X88233Y492201D01*
X88785Y492522D01*
X89344Y492830D01*
X89910Y493124D01*
X90484Y493404D01*
X91064Y493669D01*
X91650Y493921D01*
X92243Y494158D01*
X92841Y494380D01*
X93444Y494588D01*
X94053Y494780D01*
X94665Y494958D01*
X95283Y495121D01*
X95903Y495268D01*
X96528Y495400D01*
X97155Y495517D01*
X97785Y495619D01*
X98417Y495704D01*
X99052Y495775D01*
X99687Y495830D01*
X100324Y495869D01*
X100962Y495892D01*
X101600Y495900D01*
X102238Y495892D01*
X102876Y495869D01*
X103513Y495830D01*
X104148Y495775D01*
X104783Y495704D01*
X105415Y495619D01*
X106045Y495517D01*
X106672Y495400D01*
X107297Y495268D01*
X107917Y495121D01*
X108535Y494958D01*
X109147Y494780D01*
X109756Y494588D01*
X110359Y494380D01*
X110957Y494158D01*
X111550Y493921D01*
X112136Y493669D01*
X112716Y493404D01*
X113290Y493124D01*
X113856Y492830D01*
X114415Y492522D01*
X114967Y492201D01*
X115510Y491866D01*
X116045Y491518D01*
X116571Y491157D01*
X117088Y490783D01*
X117596Y490397D01*
X118094Y489998D01*
X118582Y489587D01*
X119061Y489165D01*
X119528Y488730D01*
X119985Y488285D01*
X120430Y487828D01*
X120865Y487361D01*
X121287Y486882D01*
X121698Y486394D01*
X122097Y485896D01*
X122483Y485388D01*
X122857Y484871D01*
X123218Y484345D01*
X123566Y483810D01*
X123901Y483267D01*
X124222Y482715D01*
X124530Y482156D01*
X124824Y481590D01*
X125104Y481016D01*
X125369Y480436D01*
X125621Y479850D01*
X125858Y479257D01*
X126080Y478659D01*
X126288Y478056D01*
X126480Y477447D01*
X126658Y476835D01*
X126821Y476217D01*
X126968Y475597D01*
X127100Y474972D01*
X127217Y474345D01*
X127319Y473715D01*
X127404Y473083D01*
X127475Y472448D01*
X127530Y471813D01*
X127569Y471176D01*
X127592Y470538D01*
X127600Y469900D01*
X127592Y469262D01*
X127569Y468624D01*
X127530Y467987D01*
X127475Y467352D01*
X127404Y466717D01*
X127319Y466085D01*
X127217Y465455D01*
X127100Y464828D01*
X126968Y464203D01*
X126821Y463583D01*
X126658Y462965D01*
X126480Y462353D01*
X126288Y461744D01*
X126080Y461141D01*
X125858Y460543D01*
X125621Y459950D01*
X125369Y459364D01*
X125104Y458784D01*
X124824Y458210D01*
X124530Y457644D01*
X124222Y457085D01*
X123901Y456533D01*
X123566Y455990D01*
X123218Y455455D01*
X122857Y454929D01*
X122483Y454412D01*
X122097Y453904D01*
X121698Y453406D01*
X121287Y452918D01*
X120865Y452439D01*
X120430Y451972D01*
X119985Y451515D01*
X119528Y451070D01*
X119061Y450635D01*
X118582Y450213D01*
X118094Y449802D01*
X117596Y449403D01*
X117088Y449017D01*
X116571Y448643D01*
X116045Y448282D01*
X115510Y447934D01*
X114967Y447599D01*
X114415Y447278D01*
X113856Y446970D01*
X113290Y446676D01*
X112716Y446396D01*
X112136Y446131D01*
X111550Y445879D01*
X110957Y445642D01*
X110359Y445420D01*
X109756Y445212D01*
X109147Y445020D01*
X108535Y444842D01*
X107917Y444679D01*
X107297Y444532D01*
X106672Y444400D01*
X106045Y444283D01*
X105415Y444181D01*
X104783Y444096D01*
X104148Y444025D01*
X103513Y443970D01*
X102876Y443931D01*
X102238Y443908D01*
X101600Y443900D01*
X100962Y443908D01*
X100324Y443931D01*
X99687Y443970D01*
X99052Y444025D01*
X98417Y444096D01*
X97785Y444181D01*
X97155Y444283D01*
X96528Y444400D01*
X95903Y444532D01*
X95283Y444679D01*
X94665Y444842D01*
X94053Y445020D01*
X93444Y445212D01*
X92841Y445420D01*
X92243Y445642D01*
X91650Y445879D01*
X91064Y446131D01*
X90484Y446396D01*
X89910Y446676D01*
X89344Y446970D01*
X88785Y447278D01*
X88233Y447599D01*
X87690Y447934D01*
X87155Y448282D01*
X86629Y448643D01*
X86112Y449017D01*
X85604Y449403D01*
X85106Y449802D01*
X84618Y450213D01*
X84139Y450635D01*
X83672Y451070D01*
X83215Y451515D01*
X82770Y451972D01*
X82335Y452439D01*
X81913Y452918D01*
X81502Y453406D01*
X81103Y453904D01*
X80717Y454412D01*
X80343Y454929D01*
X79982Y455455D01*
X79634Y455990D01*
X79299Y456533D01*
X78978Y457085D01*
X78670Y457644D01*
X78376Y458210D01*
X78096Y458784D01*
X77831Y459364D01*
X77579Y459950D01*
X77342Y460543D01*
X77120Y461141D01*
X76912Y461744D01*
X76720Y462353D01*
X76542Y462965D01*
X76379Y463583D01*
X76232Y464203D01*
X76100Y464828D01*
X75983Y465455D01*
X75881Y466085D01*
X75796Y466717D01*
X75725Y467352D01*
X75670Y467987D01*
X75631Y468624D01*
X75608Y469262D01*
X75600Y469900D01*
X71850Y469900D02*
X63850Y469900D01*
X67850Y465900D02*
X67850Y473900D01*
X75600Y53213D02*
X75608Y53851D01*
X75631Y54489D01*
X75670Y55126D01*
X75725Y55761D01*
X75796Y56396D01*
X75881Y57028D01*
X75983Y57658D01*
X76100Y58285D01*
X76232Y58910D01*
X76379Y59530D01*
X76542Y60148D01*
X76720Y60760D01*
X76912Y61369D01*
X77120Y61972D01*
X77342Y62570D01*
X77579Y63163D01*
X77831Y63749D01*
X78096Y64329D01*
X78376Y64903D01*
X78670Y65469D01*
X78978Y66028D01*
X79299Y66580D01*
X79634Y67123D01*
X79982Y67658D01*
X80343Y68184D01*
X80717Y68701D01*
X81103Y69209D01*
X81502Y69707D01*
X81913Y70195D01*
X82335Y70674D01*
X82770Y71141D01*
X83215Y71598D01*
X83672Y72043D01*
X84139Y72478D01*
X84618Y72900D01*
X85106Y73311D01*
X85604Y73710D01*
X86112Y74096D01*
X86629Y74470D01*
X87155Y74831D01*
X87690Y75179D01*
X88233Y75514D01*
X88785Y75835D01*
X89344Y76143D01*
X89910Y76437D01*
X90484Y76717D01*
X91064Y76982D01*
X91650Y77234D01*
X92243Y77471D01*
X92841Y77693D01*
X93444Y77901D01*
X94053Y78093D01*
X94665Y78271D01*
X95283Y78434D01*
X95903Y78581D01*
X96528Y78713D01*
X97155Y78830D01*
X97785Y78932D01*
X98417Y79017D01*
X99052Y79088D01*
X99687Y79143D01*
X100324Y79182D01*
X100962Y79205D01*
X101600Y79213D01*
X102238Y79205D01*
X102876Y79182D01*
X103513Y79143D01*
X104148Y79088D01*
X104783Y79017D01*
X105415Y78932D01*
X106045Y78830D01*
X106672Y78713D01*
X107297Y78581D01*
X107917Y78434D01*
X108535Y78271D01*
X109147Y78093D01*
X109756Y77901D01*
X110359Y77693D01*
X110957Y77471D01*
X111550Y77234D01*
X112136Y76982D01*
X112716Y76717D01*
X113290Y76437D01*
X113856Y76143D01*
X114415Y75835D01*
X114967Y75514D01*
X115510Y75179D01*
X116045Y74831D01*
X116571Y74470D01*
X117088Y74096D01*
X117596Y73710D01*
X118094Y73311D01*
X118582Y72900D01*
X119061Y72478D01*
X119528Y72043D01*
X119985Y71598D01*
X120430Y71141D01*
X120865Y70674D01*
X121287Y70195D01*
X121698Y69707D01*
X122097Y69209D01*
X122483Y68701D01*
X122857Y68184D01*
X123218Y67658D01*
X123566Y67123D01*
X123901Y66580D01*
X124222Y66028D01*
X124530Y65469D01*
X124824Y64903D01*
X125104Y64329D01*
X125369Y63749D01*
X125621Y63163D01*
X125858Y62570D01*
X126080Y61972D01*
X126288Y61369D01*
X126480Y60760D01*
X126658Y60148D01*
X126821Y59530D01*
X126968Y58910D01*
X127100Y58285D01*
X127217Y57658D01*
X127319Y57028D01*
X127404Y56396D01*
X127475Y55761D01*
X127530Y55126D01*
X127569Y54489D01*
X127592Y53851D01*
X127600Y53213D01*
X127592Y52575D01*
X127569Y51937D01*
X127530Y51300D01*
X127475Y50665D01*
X127404Y50030D01*
X127319Y49398D01*
X127217Y48768D01*
X127100Y48141D01*
X126968Y47516D01*
X126821Y46896D01*
X126658Y46278D01*
X126480Y45666D01*
X126288Y45057D01*
X126080Y44454D01*
X125858Y43856D01*
X125621Y43263D01*
X125369Y42677D01*
X125104Y42097D01*
X124824Y41523D01*
X124530Y40957D01*
X124222Y40398D01*
X123901Y39846D01*
X123566Y39303D01*
X123218Y38768D01*
X122857Y38242D01*
X122483Y37725D01*
X122097Y37217D01*
X121698Y36719D01*
X121287Y36231D01*
X120865Y35752D01*
X120430Y35285D01*
X119985Y34828D01*
X119528Y34383D01*
X119061Y33948D01*
X118582Y33526D01*
X118094Y33115D01*
X117596Y32716D01*
X117088Y32330D01*
X116571Y31956D01*
X116045Y31595D01*
X115510Y31247D01*
X114967Y30912D01*
X114415Y30591D01*
X113856Y30283D01*
X113290Y29989D01*
X112716Y29709D01*
X112136Y29444D01*
X111550Y29192D01*
X110957Y28955D01*
X110359Y28733D01*
X109756Y28525D01*
X109147Y28333D01*
X108535Y28155D01*
X107917Y27992D01*
X107297Y27845D01*
X106672Y27713D01*
X106045Y27596D01*
X105415Y27494D01*
X104783Y27409D01*
X104148Y27338D01*
X103513Y27283D01*
X102876Y27244D01*
X102238Y27221D01*
X101600Y27213D01*
X100962Y27221D01*
X100324Y27244D01*
X99687Y27283D01*
X99052Y27338D01*
X98417Y27409D01*
X97785Y27494D01*
X97155Y27596D01*
X96528Y27713D01*
X95903Y27845D01*
X95283Y27992D01*
X94665Y28155D01*
X94053Y28333D01*
X93444Y28525D01*
X92841Y28733D01*
X92243Y28955D01*
X91650Y29192D01*
X91064Y29444D01*
X90484Y29709D01*
X89910Y29989D01*
X89344Y30283D01*
X88785Y30591D01*
X88233Y30912D01*
X87690Y31247D01*
X87155Y31595D01*
X86629Y31956D01*
X86112Y32330D01*
X85604Y32716D01*
X85106Y33115D01*
X84618Y33526D01*
X84139Y33948D01*
X83672Y34383D01*
X83215Y34828D01*
X82770Y35285D01*
X82335Y35752D01*
X81913Y36231D01*
X81502Y36719D01*
X81103Y37217D01*
X80717Y37725D01*
X80343Y38242D01*
X79982Y38768D01*
X79634Y39303D01*
X79299Y39846D01*
X78978Y40398D01*
X78670Y40957D01*
X78376Y41523D01*
X78096Y42097D01*
X77831Y42677D01*
X77579Y43263D01*
X77342Y43856D01*
X77120Y44454D01*
X76912Y45057D01*
X76720Y45666D01*
X76542Y46278D01*
X76379Y46896D01*
X76232Y47516D01*
X76100Y48141D01*
X75983Y48768D01*
X75881Y49398D01*
X75796Y50030D01*
X75725Y50665D01*
X75670Y51300D01*
X75631Y51937D01*
X75608Y52575D01*
X75600Y53213D01*
X71850Y53213D02*
X63850Y53213D01*
X67850Y49213D02*
X67850Y57213D01*
D11*
X574548Y374650D02*
X574548Y381000D01*
X574548Y387350D01*
D12*
X574548Y381000D02*
X586740Y381000D01*
D11*
X568198Y381000D02*
X568198Y374650D01*
X568198Y381000D02*
X568198Y387350D01*
D12*
X568198Y381000D02*
X556260Y381000D01*
X608330Y370840D02*
X608330Y391160D01*
X605790Y393700D02*
X537210Y393700D01*
X534670Y391160D02*
X534670Y370840D01*
X537210Y368300D02*
X605790Y368300D01*
X537210Y368300D02*
X537110Y368302D01*
X537011Y368308D01*
X536911Y368318D01*
X536813Y368331D01*
X536714Y368349D01*
X536617Y368370D01*
X536521Y368395D01*
X536425Y368424D01*
X536331Y368457D01*
X536238Y368493D01*
X536147Y368533D01*
X536057Y368577D01*
X535969Y368624D01*
X535883Y368674D01*
X535799Y368728D01*
X535717Y368785D01*
X535638Y368845D01*
X535560Y368909D01*
X535486Y368975D01*
X535414Y369044D01*
X535345Y369116D01*
X535279Y369190D01*
X535215Y369268D01*
X535155Y369347D01*
X535098Y369429D01*
X535044Y369513D01*
X534994Y369599D01*
X534947Y369687D01*
X534903Y369777D01*
X534863Y369868D01*
X534827Y369961D01*
X534794Y370055D01*
X534765Y370151D01*
X534740Y370247D01*
X534719Y370344D01*
X534701Y370443D01*
X534688Y370541D01*
X534678Y370641D01*
X534672Y370740D01*
X534670Y370840D01*
X534670Y391160D02*
X534672Y391260D01*
X534678Y391359D01*
X534688Y391459D01*
X534701Y391557D01*
X534719Y391656D01*
X534740Y391753D01*
X534765Y391849D01*
X534794Y391945D01*
X534827Y392039D01*
X534863Y392132D01*
X534903Y392223D01*
X534947Y392313D01*
X534994Y392401D01*
X535044Y392487D01*
X535098Y392571D01*
X535155Y392653D01*
X535215Y392732D01*
X535279Y392810D01*
X535345Y392884D01*
X535414Y392956D01*
X535486Y393025D01*
X535560Y393091D01*
X535638Y393155D01*
X535717Y393215D01*
X535799Y393272D01*
X535883Y393326D01*
X535969Y393376D01*
X536057Y393423D01*
X536147Y393467D01*
X536238Y393507D01*
X536331Y393543D01*
X536425Y393576D01*
X536521Y393605D01*
X536617Y393630D01*
X536714Y393651D01*
X536813Y393669D01*
X536911Y393682D01*
X537011Y393692D01*
X537110Y393698D01*
X537210Y393700D01*
X605790Y393700D02*
X605890Y393698D01*
X605989Y393692D01*
X606089Y393682D01*
X606187Y393669D01*
X606286Y393651D01*
X606383Y393630D01*
X606479Y393605D01*
X606575Y393576D01*
X606669Y393543D01*
X606762Y393507D01*
X606853Y393467D01*
X606943Y393423D01*
X607031Y393376D01*
X607117Y393326D01*
X607201Y393272D01*
X607283Y393215D01*
X607362Y393155D01*
X607440Y393091D01*
X607514Y393025D01*
X607586Y392956D01*
X607655Y392884D01*
X607721Y392810D01*
X607785Y392732D01*
X607845Y392653D01*
X607902Y392571D01*
X607956Y392487D01*
X608006Y392401D01*
X608053Y392313D01*
X608097Y392223D01*
X608137Y392132D01*
X608173Y392039D01*
X608206Y391945D01*
X608235Y391849D01*
X608260Y391753D01*
X608281Y391656D01*
X608299Y391557D01*
X608312Y391459D01*
X608322Y391359D01*
X608328Y391260D01*
X608330Y391160D01*
X608330Y370840D02*
X608328Y370740D01*
X608322Y370641D01*
X608312Y370541D01*
X608299Y370443D01*
X608281Y370344D01*
X608260Y370247D01*
X608235Y370151D01*
X608206Y370055D01*
X608173Y369961D01*
X608137Y369868D01*
X608097Y369777D01*
X608053Y369687D01*
X608006Y369599D01*
X607956Y369513D01*
X607902Y369429D01*
X607845Y369347D01*
X607785Y369268D01*
X607721Y369190D01*
X607655Y369116D01*
X607586Y369044D01*
X607514Y368975D01*
X607440Y368909D01*
X607362Y368845D01*
X607283Y368785D01*
X607201Y368728D01*
X607117Y368674D01*
X607031Y368624D01*
X606943Y368577D01*
X606853Y368533D01*
X606762Y368493D01*
X606669Y368457D01*
X606575Y368424D01*
X606479Y368395D01*
X606383Y368370D01*
X606286Y368349D01*
X606187Y368331D01*
X606089Y368318D01*
X605989Y368308D01*
X605890Y368302D01*
X605790Y368300D01*
D13*
X677560Y516060D02*
X435560Y516060D01*
X435560Y419060D02*
X677560Y419060D01*
X435560Y419060D02*
X435560Y452560D01*
X677560Y452560D02*
X677560Y419060D01*
X677560Y482060D02*
X677560Y516060D01*
X435560Y516060D02*
X435560Y482060D01*
D12*
X608078Y330200D02*
X608078Y152400D01*
X549658Y152400D02*
X549658Y330200D01*
X549658Y152400D02*
X608078Y152400D01*
X608078Y330200D02*
X589028Y330200D01*
X568708Y330200D02*
X549658Y330200D01*
X568708Y330200D02*
X568711Y329953D01*
X568720Y329705D01*
X568735Y329458D01*
X568756Y329212D01*
X568783Y328966D01*
X568816Y328721D01*
X568855Y328476D01*
X568900Y328233D01*
X568951Y327991D01*
X569008Y327750D01*
X569070Y327511D01*
X569139Y327273D01*
X569213Y327037D01*
X569293Y326803D01*
X569378Y326571D01*
X569470Y326341D01*
X569566Y326113D01*
X569669Y325888D01*
X569776Y325665D01*
X569890Y325445D01*
X570008Y325228D01*
X570132Y325013D01*
X570261Y324802D01*
X570395Y324594D01*
X570534Y324389D01*
X570678Y324188D01*
X570826Y323990D01*
X570980Y323796D01*
X571138Y323606D01*
X571301Y323420D01*
X571468Y323238D01*
X571640Y323060D01*
X571816Y322886D01*
X571996Y322716D01*
X572181Y322551D01*
X572369Y322391D01*
X572561Y322235D01*
X572757Y322083D01*
X572956Y321937D01*
X573159Y321795D01*
X573366Y321659D01*
X573575Y321527D01*
X573788Y321401D01*
X574004Y321280D01*
X574222Y321164D01*
X574444Y321054D01*
X574668Y320949D01*
X574894Y320849D01*
X575123Y320755D01*
X575354Y320667D01*
X575588Y320584D01*
X575823Y320507D01*
X576060Y320436D01*
X576298Y320370D01*
X576538Y320311D01*
X576780Y320257D01*
X577023Y320209D01*
X577266Y320167D01*
X577511Y320131D01*
X577757Y320101D01*
X578003Y320077D01*
X578250Y320059D01*
X578497Y320047D01*
X578744Y320041D01*
X578992Y320041D01*
X579239Y320047D01*
X579486Y320059D01*
X579733Y320077D01*
X579979Y320101D01*
X580225Y320131D01*
X580470Y320167D01*
X580713Y320209D01*
X580956Y320257D01*
X581198Y320311D01*
X581438Y320370D01*
X581676Y320436D01*
X581913Y320507D01*
X582148Y320584D01*
X582382Y320667D01*
X582613Y320755D01*
X582842Y320849D01*
X583068Y320949D01*
X583292Y321054D01*
X583514Y321164D01*
X583732Y321280D01*
X583948Y321401D01*
X584161Y321527D01*
X584370Y321659D01*
X584577Y321795D01*
X584780Y321937D01*
X584979Y322083D01*
X585175Y322235D01*
X585367Y322391D01*
X585555Y322551D01*
X585740Y322716D01*
X585920Y322886D01*
X586096Y323060D01*
X586268Y323238D01*
X586435Y323420D01*
X586598Y323606D01*
X586756Y323796D01*
X586910Y323990D01*
X587058Y324188D01*
X587202Y324389D01*
X587341Y324594D01*
X587475Y324802D01*
X587604Y325013D01*
X587728Y325228D01*
X587846Y325445D01*
X587960Y325665D01*
X588067Y325888D01*
X588170Y326113D01*
X588266Y326341D01*
X588358Y326571D01*
X588443Y326803D01*
X588523Y327037D01*
X588597Y327273D01*
X588666Y327511D01*
X588728Y327750D01*
X588785Y327991D01*
X588836Y328233D01*
X588881Y328476D01*
X588920Y328721D01*
X588953Y328966D01*
X588980Y329212D01*
X589001Y329458D01*
X589016Y329705D01*
X589025Y329953D01*
X589028Y330200D01*
D10*
X458200Y140700D02*
X75200Y140700D01*
X458200Y140700D02*
X458200Y113300D01*
X75200Y113300D01*
X75200Y140700D01*
X75200Y367300D02*
X458200Y367300D01*
X75200Y367300D02*
X75200Y394700D01*
X458200Y394700D01*
X458200Y367300D01*
D12*
X554990Y74930D02*
X554890Y74928D01*
X554791Y74922D01*
X554691Y74912D01*
X554593Y74899D01*
X554494Y74881D01*
X554397Y74860D01*
X554301Y74835D01*
X554205Y74806D01*
X554111Y74773D01*
X554018Y74737D01*
X553927Y74697D01*
X553837Y74653D01*
X553749Y74606D01*
X553663Y74556D01*
X553579Y74502D01*
X553497Y74445D01*
X553418Y74385D01*
X553340Y74321D01*
X553266Y74255D01*
X553194Y74186D01*
X553125Y74114D01*
X553059Y74040D01*
X552995Y73962D01*
X552935Y73883D01*
X552878Y73801D01*
X552824Y73717D01*
X552774Y73631D01*
X552727Y73543D01*
X552683Y73453D01*
X552643Y73362D01*
X552607Y73269D01*
X552574Y73175D01*
X552545Y73079D01*
X552520Y72983D01*
X552499Y72886D01*
X552481Y72787D01*
X552468Y72689D01*
X552458Y72589D01*
X552452Y72490D01*
X552450Y72390D01*
X552450Y54610D02*
X552452Y54510D01*
X552458Y54411D01*
X552468Y54311D01*
X552481Y54213D01*
X552499Y54114D01*
X552520Y54017D01*
X552545Y53921D01*
X552574Y53825D01*
X552607Y53731D01*
X552643Y53638D01*
X552683Y53547D01*
X552727Y53457D01*
X552774Y53369D01*
X552824Y53283D01*
X552878Y53199D01*
X552935Y53117D01*
X552995Y53038D01*
X553059Y52960D01*
X553125Y52886D01*
X553194Y52814D01*
X553266Y52745D01*
X553340Y52679D01*
X553418Y52615D01*
X553497Y52555D01*
X553579Y52498D01*
X553663Y52444D01*
X553749Y52394D01*
X553837Y52347D01*
X553927Y52303D01*
X554018Y52263D01*
X554111Y52227D01*
X554205Y52194D01*
X554301Y52165D01*
X554397Y52140D01*
X554494Y52119D01*
X554593Y52101D01*
X554691Y52088D01*
X554791Y52078D01*
X554890Y52072D01*
X554990Y52070D01*
X613410Y52070D02*
X613510Y52072D01*
X613609Y52078D01*
X613709Y52088D01*
X613807Y52101D01*
X613906Y52119D01*
X614003Y52140D01*
X614099Y52165D01*
X614195Y52194D01*
X614289Y52227D01*
X614382Y52263D01*
X614473Y52303D01*
X614563Y52347D01*
X614651Y52394D01*
X614737Y52444D01*
X614821Y52498D01*
X614903Y52555D01*
X614982Y52615D01*
X615060Y52679D01*
X615134Y52745D01*
X615206Y52814D01*
X615275Y52886D01*
X615341Y52960D01*
X615405Y53038D01*
X615465Y53117D01*
X615522Y53199D01*
X615576Y53283D01*
X615626Y53369D01*
X615673Y53457D01*
X615717Y53547D01*
X615757Y53638D01*
X615793Y53731D01*
X615826Y53825D01*
X615855Y53921D01*
X615880Y54017D01*
X615901Y54114D01*
X615919Y54213D01*
X615932Y54311D01*
X615942Y54411D01*
X615948Y54510D01*
X615950Y54610D01*
X615950Y72390D02*
X615948Y72490D01*
X615942Y72589D01*
X615932Y72689D01*
X615919Y72787D01*
X615901Y72886D01*
X615880Y72983D01*
X615855Y73079D01*
X615826Y73175D01*
X615793Y73269D01*
X615757Y73362D01*
X615717Y73453D01*
X615673Y73543D01*
X615626Y73631D01*
X615576Y73717D01*
X615522Y73801D01*
X615465Y73883D01*
X615405Y73962D01*
X615341Y74040D01*
X615275Y74114D01*
X615206Y74186D01*
X615134Y74255D01*
X615060Y74321D01*
X614982Y74385D01*
X614903Y74445D01*
X614821Y74502D01*
X614737Y74556D01*
X614651Y74606D01*
X614563Y74653D01*
X614473Y74697D01*
X614382Y74737D01*
X614289Y74773D01*
X614195Y74806D01*
X614099Y74835D01*
X614003Y74860D01*
X613906Y74881D01*
X613807Y74899D01*
X613709Y74912D01*
X613609Y74922D01*
X613510Y74928D01*
X613410Y74930D01*
X552450Y72390D02*
X552450Y54610D01*
X554990Y74930D02*
X558800Y74930D01*
X560070Y73660D01*
X558800Y52070D02*
X554990Y52070D01*
X558800Y52070D02*
X560070Y53340D01*
X608330Y73660D02*
X609600Y74930D01*
X608330Y73660D02*
X560070Y73660D01*
X608330Y53340D02*
X609600Y52070D01*
X608330Y53340D02*
X560070Y53340D01*
X609600Y74930D02*
X613410Y74930D01*
X613410Y52070D02*
X609600Y52070D01*
X615950Y54610D02*
X615950Y72390D01*
D14*
X620268Y63500D03*
X548132Y63500D03*
D12*
X552450Y114554D02*
X552452Y114654D01*
X552458Y114753D01*
X552468Y114853D01*
X552481Y114951D01*
X552499Y115050D01*
X552520Y115147D01*
X552545Y115243D01*
X552574Y115339D01*
X552607Y115433D01*
X552643Y115526D01*
X552683Y115617D01*
X552727Y115707D01*
X552774Y115795D01*
X552824Y115881D01*
X552878Y115965D01*
X552935Y116047D01*
X552995Y116126D01*
X553059Y116204D01*
X553125Y116278D01*
X553194Y116350D01*
X553266Y116419D01*
X553340Y116485D01*
X553418Y116549D01*
X553497Y116609D01*
X553579Y116666D01*
X553663Y116720D01*
X553749Y116770D01*
X553837Y116817D01*
X553927Y116861D01*
X554018Y116901D01*
X554111Y116937D01*
X554205Y116970D01*
X554301Y116999D01*
X554397Y117024D01*
X554494Y117045D01*
X554593Y117063D01*
X554691Y117076D01*
X554791Y117086D01*
X554890Y117092D01*
X554990Y117094D01*
X552450Y96774D02*
X552452Y96674D01*
X552458Y96575D01*
X552468Y96475D01*
X552481Y96377D01*
X552499Y96278D01*
X552520Y96181D01*
X552545Y96085D01*
X552574Y95989D01*
X552607Y95895D01*
X552643Y95802D01*
X552683Y95711D01*
X552727Y95621D01*
X552774Y95533D01*
X552824Y95447D01*
X552878Y95363D01*
X552935Y95281D01*
X552995Y95202D01*
X553059Y95124D01*
X553125Y95050D01*
X553194Y94978D01*
X553266Y94909D01*
X553340Y94843D01*
X553418Y94779D01*
X553497Y94719D01*
X553579Y94662D01*
X553663Y94608D01*
X553749Y94558D01*
X553837Y94511D01*
X553927Y94467D01*
X554018Y94427D01*
X554111Y94391D01*
X554205Y94358D01*
X554301Y94329D01*
X554397Y94304D01*
X554494Y94283D01*
X554593Y94265D01*
X554691Y94252D01*
X554791Y94242D01*
X554890Y94236D01*
X554990Y94234D01*
X613410Y94234D02*
X613510Y94236D01*
X613609Y94242D01*
X613709Y94252D01*
X613807Y94265D01*
X613906Y94283D01*
X614003Y94304D01*
X614099Y94329D01*
X614195Y94358D01*
X614289Y94391D01*
X614382Y94427D01*
X614473Y94467D01*
X614563Y94511D01*
X614651Y94558D01*
X614737Y94608D01*
X614821Y94662D01*
X614903Y94719D01*
X614982Y94779D01*
X615060Y94843D01*
X615134Y94909D01*
X615206Y94978D01*
X615275Y95050D01*
X615341Y95124D01*
X615405Y95202D01*
X615465Y95281D01*
X615522Y95363D01*
X615576Y95447D01*
X615626Y95533D01*
X615673Y95621D01*
X615717Y95711D01*
X615757Y95802D01*
X615793Y95895D01*
X615826Y95989D01*
X615855Y96085D01*
X615880Y96181D01*
X615901Y96278D01*
X615919Y96377D01*
X615932Y96475D01*
X615942Y96575D01*
X615948Y96674D01*
X615950Y96774D01*
X615950Y114554D02*
X615948Y114654D01*
X615942Y114753D01*
X615932Y114853D01*
X615919Y114951D01*
X615901Y115050D01*
X615880Y115147D01*
X615855Y115243D01*
X615826Y115339D01*
X615793Y115433D01*
X615757Y115526D01*
X615717Y115617D01*
X615673Y115707D01*
X615626Y115795D01*
X615576Y115881D01*
X615522Y115965D01*
X615465Y116047D01*
X615405Y116126D01*
X615341Y116204D01*
X615275Y116278D01*
X615206Y116350D01*
X615134Y116419D01*
X615060Y116485D01*
X614982Y116549D01*
X614903Y116609D01*
X614821Y116666D01*
X614737Y116720D01*
X614651Y116770D01*
X614563Y116817D01*
X614473Y116861D01*
X614382Y116901D01*
X614289Y116937D01*
X614195Y116970D01*
X614099Y116999D01*
X614003Y117024D01*
X613906Y117045D01*
X613807Y117063D01*
X613709Y117076D01*
X613609Y117086D01*
X613510Y117092D01*
X613410Y117094D01*
X552450Y114554D02*
X552450Y96774D01*
X554990Y117094D02*
X558800Y117094D01*
X560070Y115824D01*
X558800Y94234D02*
X554990Y94234D01*
X558800Y94234D02*
X560070Y95504D01*
X608330Y115824D02*
X609600Y117094D01*
X608330Y115824D02*
X560070Y115824D01*
X608330Y95504D02*
X609600Y94234D01*
X608330Y95504D02*
X560070Y95504D01*
X609600Y117094D02*
X613410Y117094D01*
X613410Y94234D02*
X609600Y94234D01*
X615950Y96774D02*
X615950Y114554D01*
D14*
X620268Y105664D03*
X548132Y105664D03*
D10*
X366080Y428241D02*
X279080Y428241D01*
X279080Y534341D01*
X366080Y534341D01*
X366080Y428241D01*
X664400Y150150D02*
X751400Y150150D01*
X664400Y150150D02*
X664400Y357850D01*
X751400Y357850D01*
X751400Y150150D01*
M02*
