M48
;GenerationSoftware,Autodesk,EAGLE,9.7.0*%
;CreationDate,2026-07-28T15:33:41Z*%
FMAT,2
ICI,OFF
METRIC,TZ,000.000
T5C0.800
T4C0.813
T3C1.016
T2C1.200
T1C1.300
%
G90
M71
T1
X44706Y46756
X66606Y46756
T2
X70790Y17780
X70790Y22860
X70790Y27940
X70790Y33020
X32258Y45589
X32258Y50669
T3
X31750Y12700
X44450Y38100
X8890Y38100
X11430Y38100
X13970Y38100
X16510Y38100
X19050Y38100
X21590Y38100
X24130Y38100
X26670Y38100
X29210Y38100
X31750Y38100
X34290Y38100
X36830Y38100
X8890Y12700
X11430Y12700
X13970Y12700
X16510Y12700
X19050Y12700
X21590Y12700
X24130Y12700
X26670Y12700
X29210Y12700
X39370Y38100
X34290Y12700
X36830Y12700
X39370Y12700
X41910Y12700
X44450Y12700
X41910Y38100
T4
X54077Y29210
X54077Y31750
X61697Y31750
X61697Y29210
X61697Y26670
X61697Y24130
X61697Y21590
X61697Y19050
X54077Y21590
X54077Y19050
X54077Y24130
X54077Y26670
X61697Y16510
X54077Y16510
X53340Y6350
X63500Y6350
X53340Y10566
X63500Y10566
X54610Y38100
X59690Y38100
T5
X11160Y5321
X9160Y5321
X11160Y46990
X9160Y46990
M30